<svg width="125" height="125" viewBox="0 0 125 125" fill="none" xmlns="http://www.w3.org/2000/svg">
<rect width="125" height="125" rx="10" fill="#E5E5E5"/>
<path d="M40.5 15.0156C37.1593 15.0156 33.8937 16.0062 31.1161 17.8622C28.3385 19.7182 26.1735 22.3561 24.8951 25.4425C23.6167 28.5289 23.2822 31.925 23.9339 35.2015C24.5857 38.4779 26.1943 41.4875 28.5566 43.8498C30.9188 46.2119 33.9284 47.8206 37.2048 48.4724C40.4813 49.124 43.8774 48.7895 46.9637 47.5111C50.0501 46.2327 52.6881 44.0678 54.544 41.2902C56.4 38.5125 57.3906 35.2469 57.3906 31.9062C57.3906 27.4266 55.6111 23.1304 52.4435 19.9627C49.2759 16.7952 44.9797 15.0156 40.5 15.0156ZM40.5 45.125C37.8856 45.125 35.3299 44.3497 33.156 42.8973C30.9823 41.4448 29.288 39.3803 28.2875 36.9648C27.287 34.5494 27.0252 31.8916 27.5353 29.3274C28.0453 26.7632 29.3042 24.4078 31.1529 22.5592C33.0016 20.7105 35.357 19.4515 37.9212 18.9415C40.4853 18.4314 43.1432 18.6932 45.5586 19.6937C47.974 20.6942 50.0385 22.3885 51.491 24.5623C52.9435 26.7361 53.7188 29.2918 53.7188 31.9062C53.7188 35.4121 52.3261 38.7743 49.8471 41.2533C47.3681 43.7323 44.0058 45.125 40.5 45.125Z" fill="#F9E109"/>
<path d="M34.8593 15.9843L37.832 18.957C38.7099 18.7776 39.6038 18.6873 40.5 18.6875L43.8399 15.3476C40.8437 14.7454 37.7404 14.9654 34.8593 15.9843Z" fill="#FCBC04"/>
<path d="M40.5 19.4219L37.5625 11.3438H43.4375L40.5 19.4219Z" fill="#57B7EB"/>
<path d="M40.5 6.20312L37.5625 11.3438H43.4375L40.5 6.20312Z" fill="#84D2F4"/>
<path d="M35.3594 6.20312L32.4219 11.3438H37.5625L35.3594 6.20312Z" fill="#84D2F4"/>
<path d="M40.5 6.20312H35.3594L37.5625 11.3438L40.5 6.20312Z" fill="#57B7EB"/>
<path d="M45.6406 6.20312H40.5L43.4375 11.3438L45.6406 6.20312Z" fill="#57B7EB"/>
<path d="M48.5781 11.3438L45.6406 6.20312L43.4375 11.3438H48.5781Z" fill="#84D2F4"/>
<path d="M32.4219 11.3438L40.5 19.4211L37.5625 11.3438H32.4219Z" fill="#4891D3"/>
<path d="M48.5781 11.3438H43.4375L40.5 19.4219L48.5781 11.3438Z" fill="#4891D3"/>
<path d="M41.9687 47.3281C38.7164 47.329 35.5331 46.3907 32.8013 44.626C30.0694 42.8612 27.9053 40.3452 26.569 37.3801C25.2327 34.415 24.7811 31.1272 25.2684 27.9116C25.7558 24.6961 27.1613 21.6897 29.3162 19.2537C27.5794 20.7778 26.1738 22.6421 25.1865 24.7312C24.1991 26.8203 23.6508 29.0897 23.5756 31.3992C23.5004 33.7086 23.8998 36.0089 24.7492 38.1578C25.5986 40.3068 26.8799 42.2585 28.5138 43.8924C30.1477 45.5263 32.0994 46.8075 34.2484 47.657C36.3972 48.5064 38.6976 48.9058 41.007 48.8306C43.3165 48.7554 45.5859 48.2071 47.675 47.2197C49.7641 46.2323 51.6284 44.8268 53.1525 43.0901C50.0696 45.825 46.0899 47.3331 41.9687 47.3281Z" fill="#FCBC04"/>
<path d="M111.727 72.2422H106.453V75.7578H111.727V72.2422Z" fill="#969696"/>
<path d="M85.2422 44L80.5547 74L85.2422 104H101.18V44H85.2422Z" fill="black"/>
<path d="M85.2422 44H69.3047V104H85.2422V44Z" fill="#4D4D4D"/>
<path d="M85.2422 51.0312L80.5547 74L85.2422 96.9688C97.9275 96.9688 108.211 86.6853 108.211 74C108.211 61.3147 97.9275 51.0312 85.2422 51.0312Z" fill="#4D4D4D"/>
<path d="M62.2734 74C62.2734 86.6853 72.5569 96.9688 85.2422 96.9688V51.0312C72.5569 51.0312 62.2734 61.3147 62.2734 74Z" fill="#969696"/>
<path d="M85.2422 57.0078L80.5547 74L85.2422 90.9922C94.6267 90.9922 102.234 83.3845 102.234 74C102.234 64.6155 94.6267 57.0078 85.2422 57.0078Z" fill="#ABECEC"/>
<path d="M68.25 74C68.25 83.3845 75.8577 90.9922 85.2422 90.9922V57.0078C75.8577 57.0078 68.25 64.6155 68.25 74Z" fill="#D5F6F5"/>
<path d="M85.2422 60.5234L80.5547 74L85.2422 87.4766C92.6851 87.4766 98.7188 81.4429 98.7188 74C98.7188 66.5571 92.6851 60.5234 85.2422 60.5234Z" fill="#D5F6F5"/>
<path d="M71.7656 74C71.7656 81.4429 77.7993 87.4766 85.2422 87.4766V60.5234C77.7993 60.5234 71.7656 66.5571 71.7656 74Z" fill="white"/>
<path d="M87 72.2422L85.8281 74L87 75.7578H94.1484V72.2422H87Z" fill="black"/>
<path d="M87 65.0938H83.4844V75.7578H87V65.0938Z" fill="#272727"/>
<g clip-path="url(#clip0_203_6)">
<path d="M28.4793 107.866C20.1431 107.866 9.37149 101.497 6.65522 95.0341C5.43754 92.0369 5.90593 89.3205 8.1539 87.0726C13.3055 82.0146 19.3001 77.425 23.4214 75.2707C23.2341 74.9897 23.0467 74.7087 22.9531 74.4277C22.2974 73.1164 22.2974 71.805 22.8594 70.9621C23.2341 70.4938 23.9834 69.9318 25.4821 70.0254C32.4133 70.5874 33.069 74.615 33.631 78.1743C38.2206 79.4856 44.3088 82.6702 48.8048 87.0725C51.0528 89.3204 51.6148 92.0367 50.3035 95.0341C47.587 101.497 36.8155 107.866 28.4793 107.866ZM24.2643 76.3011C20.2367 78.2681 14.1484 82.9513 9.09049 88.0092C7.21721 89.8825 6.84252 92.0369 7.87281 94.5658C10.4018 100.56 20.7987 106.649 28.4793 106.649C36.2535 106.649 46.6503 100.56 49.0857 94.5658C50.116 92.0369 49.7414 89.8826 47.868 88.0092C43.8404 83.9816 38.2204 80.8906 33.8182 79.5793C34.1929 81.64 34.8485 83.4196 37.1902 84.169C37.5648 84.2627 37.6584 84.6373 37.5648 85.012C37.4712 85.3867 37.0965 85.4803 36.7219 85.3867C33.5372 84.2627 32.8816 81.7337 32.5069 79.2047C31.6639 79.0174 30.8209 78.9237 30.1652 78.83C29.7905 80.6097 28.6666 82.764 25.6693 85.012C25.3883 85.1993 25.0136 85.1993 24.7326 84.9183C24.5453 84.6373 24.5453 84.2626 24.8263 84.0753C27.0743 82.3893 28.4793 80.6096 28.8539 78.83C27.0743 78.3617 25.3883 77.5187 24.2643 76.3011ZM30.2589 77.6124C30.9146 77.6124 31.5702 77.7061 32.3196 77.8934C31.7576 74.6151 31.1019 71.8051 25.3884 71.3368C24.8264 71.3368 24.1707 71.3368 23.8897 71.7114C23.6087 72.1797 23.7024 73.0227 24.077 73.8657C24.1707 74.1467 24.358 74.4277 24.5453 74.7087C25.1073 74.4277 25.6693 74.2404 26.044 74.1467C26.887 73.8657 27.9173 74.053 28.6666 74.5214C29.416 74.9898 29.8843 75.7391 30.0716 76.5821C30.1652 76.8631 30.2589 77.2377 30.2589 77.6124ZM25.482 75.7391C26.4187 76.5821 27.6363 77.2378 28.9476 77.5188C28.9476 77.3315 28.9476 77.0505 28.8539 76.8631C28.7603 76.3948 28.4793 75.9264 28.011 75.6454C27.5427 75.3644 26.9807 75.2707 26.4187 75.4581C26.1376 75.4581 25.8566 75.5517 25.482 75.7391Z" fill="#415A6B"/>
<path d="M45.1518 102.527C45.1518 104.401 43.5595 105.993 41.6861 105.993C41.2178 105.993 40.7494 105.899 40.3748 105.712C40.2811 107.866 38.5016 109.552 36.3472 109.552C35.5979 109.552 34.9422 109.365 34.2865 108.99C34.2865 109.084 34.2865 109.178 34.2865 109.271C34.2865 112.362 31.7575 114.985 28.5729 114.985C25.3882 114.985 22.8593 112.456 22.8593 109.271C22.8593 109.178 22.8593 109.084 22.8593 108.99C22.2973 109.365 21.548 109.552 20.7986 109.552C18.6443 109.552 16.8647 107.866 16.771 105.712C16.3963 105.899 15.928 105.993 15.4597 105.993C13.4927 105.993 11.994 104.401 11.994 102.527C11.994 100.654 13.5863 99.0617 15.4597 99.0617C17.2393 99.0617 18.6443 100.373 18.9253 102.059C19.4873 101.684 20.143 101.591 20.8923 101.591C22.953 101.591 24.6389 103.089 24.9199 105.056C25.9502 104.12 27.2616 103.651 28.6666 103.651C30.0716 103.651 31.3829 104.213 32.4132 105.056C32.6942 103.089 34.3802 101.591 36.4409 101.591C37.1902 101.591 37.8459 101.778 38.4079 102.059C38.5952 100.373 40.0938 99.0617 41.8735 99.0617C43.5594 99.0618 45.1518 100.654 45.1518 102.527Z" fill="#F3F3F3"/>
<path d="M28.4793 114.048C31.1693 114.048 33.3499 111.909 33.3499 109.271C33.3499 106.633 31.1693 104.494 28.4793 104.494C25.7893 104.494 23.6086 106.633 23.6086 109.271C23.6086 111.909 25.7893 114.048 28.4793 114.048Z" fill="#66C6B9"/>
<path d="M31.8512 107.492C32.2259 108.241 32.2259 108.99 31.7575 109.178C31.2892 109.365 30.6335 108.99 30.2588 108.241C29.8841 107.492 29.8841 106.742 30.3525 106.555C30.7272 106.368 31.3829 106.836 31.8512 107.492Z" fill="white"/>
<path d="M36.2535 108.709C38.0123 108.709 39.4382 107.325 39.4382 105.618C39.4382 103.911 38.0123 102.527 36.2535 102.527C34.4947 102.527 33.0688 103.911 33.0688 105.618C33.0688 107.325 34.4947 108.709 36.2535 108.709Z" fill="#66C6B9"/>
<path d="M38.4079 107.866C37.8459 108.428 37.0966 108.709 36.2536 108.709C34.474 108.709 33.069 107.304 33.069 105.525C33.069 104.213 33.8183 103.183 34.9423 102.715C34.2866 103.277 33.912 104.12 33.912 104.963C33.912 106.649 35.3169 108.054 37.0966 108.054C37.5649 108.147 38.0332 108.054 38.4079 107.866Z" fill="#4ABAA5"/>
<path d="M38.4078 104.401C38.6888 104.869 38.5951 105.337 38.3141 105.525C38.0331 105.712 37.5648 105.431 37.3774 104.963C37.0964 104.494 37.1901 104.026 37.4711 103.839C37.7521 103.651 38.1268 103.932 38.4078 104.401Z" fill="white"/>
<path d="M41.5924 105.15C43.0408 105.15 44.2151 103.976 44.2151 102.527C44.2151 101.079 43.0408 99.9047 41.5924 99.9047C40.1439 99.9047 38.9697 101.079 38.9697 102.527C38.9697 103.976 40.1439 105.15 41.5924 105.15Z" fill="#66C6B9"/>
<path d="M43.3721 104.401C42.9038 104.869 42.2481 105.15 41.5924 105.15C40.1874 105.15 38.9697 104.026 38.9697 102.527C38.9697 101.497 39.6254 100.56 40.4684 100.186C40.0001 100.654 39.6254 101.31 39.6254 102.059C39.6254 103.464 40.7494 104.588 42.2481 104.588C42.7164 104.682 43.0911 104.588 43.3721 104.401Z" fill="#4ABAA5"/>
<path d="M43.3955 101.561C43.1809 101.148 42.8208 100.909 42.5913 101.029C42.3617 101.148 42.3495 101.579 42.5641 101.993C42.7787 102.406 43.1387 102.644 43.3683 102.525C43.5979 102.406 43.6101 101.974 43.3955 101.561Z" fill="white"/>
<path d="M20.705 108.709C22.4639 108.709 23.8897 107.325 23.8897 105.618C23.8897 103.911 22.4639 102.527 20.705 102.527C18.9462 102.527 17.5204 103.911 17.5204 105.618C17.5204 107.325 18.9462 108.709 20.705 108.709Z" fill="#66C6B9"/>
<path d="M18.5507 107.866C19.1127 108.428 19.8619 108.709 20.7049 108.709C22.4846 108.709 23.8896 107.304 23.8896 105.525C23.8896 104.213 23.1403 103.183 22.0163 102.715C22.672 103.277 23.0466 104.12 23.0466 104.963C23.0466 106.649 21.6416 108.054 19.8619 108.054C19.3936 108.147 18.9254 108.054 18.5507 107.866Z" fill="#4ABAA5"/>
<path d="M18.5508 104.401C18.2698 104.869 18.3635 105.337 18.6445 105.525C18.9255 105.712 19.3938 105.431 19.5811 104.963C19.8621 104.494 19.7684 104.026 19.4874 103.839C19.2064 103.651 18.8318 103.932 18.5508 104.401Z" fill="white"/>
<path d="M15.3662 105.15C16.8147 105.15 17.9889 103.976 17.9889 102.527C17.9889 101.079 16.8147 99.9047 15.3662 99.9047C13.9177 99.9047 12.7435 101.079 12.7435 102.527C12.7435 103.976 13.9177 105.15 15.3662 105.15Z" fill="#66C6B9"/>
<path d="M13.5864 104.401C14.0547 104.869 14.7104 105.15 15.3661 105.15C16.7711 105.15 17.9888 104.026 17.9888 102.527C17.9888 101.497 17.3331 100.56 16.4901 100.186C16.9584 100.654 17.3331 101.31 17.3331 102.059C17.3331 103.464 16.2091 104.588 14.7104 104.588C14.2421 104.682 13.8674 104.588 13.5864 104.401Z" fill="#4ABAA5"/>
<path d="M13.5383 101.643C13.3237 102.057 13.3358 102.488 13.5654 102.607C13.795 102.727 14.1551 102.488 14.3696 102.075C14.5842 101.662 14.5721 101.23 14.3425 101.111C14.1129 100.992 13.7528 101.23 13.5383 101.643Z" fill="white"/>
<path d="M31.8512 107.492C32.2259 108.241 32.2259 108.99 31.7575 109.178C31.2892 109.365 30.6335 108.99 30.2588 108.241C29.8841 107.492 29.8841 106.742 30.3525 106.555C30.7272 106.368 31.3829 106.836 31.8512 107.492Z" fill="white"/>
<path d="M38.4078 104.401C38.6888 104.869 38.5951 105.337 38.3141 105.525C38.0331 105.712 37.5648 105.431 37.3774 104.963C37.0964 104.494 37.1901 104.026 37.4711 103.839C37.7521 103.651 38.1268 103.932 38.4078 104.401Z" fill="white"/>
<path d="M43.3955 101.561C43.1809 101.148 42.8208 100.909 42.5913 101.029C42.3617 101.148 42.3495 101.579 42.5641 101.993C42.7787 102.406 43.1387 102.644 43.3683 102.525C43.5979 102.406 43.6101 101.974 43.3955 101.561Z" fill="white"/>
<path d="M18.5508 104.401C18.2698 104.869 18.3635 105.337 18.6445 105.525C18.9255 105.712 19.3938 105.431 19.5811 104.963C19.8621 104.494 19.7684 104.026 19.4874 103.839C19.2064 103.651 18.8318 103.932 18.5508 104.401Z" fill="white"/>
<path d="M13.5383 101.643C13.3237 102.057 13.3358 102.488 13.5654 102.607C13.795 102.727 14.1551 102.488 14.3696 102.075C14.5842 101.662 14.5721 101.23 14.3425 101.111C14.1129 100.992 13.7528 101.23 13.5383 101.643Z" fill="white"/>
<path d="M33.35 109.271C33.35 111.894 31.1957 114.048 28.573 114.048C25.8568 114.048 23.7024 111.894 23.7024 109.271C23.7024 108.99 23.7024 108.803 23.7961 108.616C24.1708 110.957 26.1378 112.737 28.573 112.737C31.0083 112.737 32.9753 110.957 33.35 108.616C33.2563 108.803 33.35 109.084 33.35 109.271Z" fill="#4ABAA5"/>
</g>
<defs>
<clipPath id="clip0_203_6">
<rect width="45" height="45" fill="white" transform="translate(6 70)"/>
</clipPath>
</defs>
</svg>
