<svg width="125" height="125" viewBox="0 0 125 125" fill="none" xmlns="http://www.w3.org/2000/svg">
<rect width="125" height="125" rx="10" fill="#E4E4E6"/>
<path d="M45.0628 23.1277C43.951 23.1277 43.2565 23.9342 42.8907 24.6705C42.5249 25.4064 42.3629 26.261 42.3629 27.1877C42.3629 28.1148 42.5248 28.9692 42.8907 29.7049C43.2566 30.4408 43.9515 31.2478 45.0628 31.2478H77.0966C78.2082 31.2478 78.9028 30.4402 79.2687 29.7049C79.6345 28.9691 79.8168 28.1145 79.8168 27.1877C79.8168 26.2606 79.6346 25.4063 79.2687 24.6705C78.9028 23.9346 78.208 23.1277 77.0966 23.1277H45.0628Z" fill="#79EF78"/>
<path d="M46.5 24.1885C45.4879 24.1885 44.8557 24.784 44.5227 25.3281C44.1897 25.8717 44.0422 26.5033 44.0422 27.1878C44.0422 27.8728 44.1896 28.5039 44.5227 29.0475C44.8558 29.5911 45.4883 30.1872 46.5 30.1872H75.6611C76.673 30.1872 77.3053 29.5907 77.6384 29.0475C77.9714 28.5039 78.1373 27.8726 78.1373 27.1878C78.1373 26.5029 77.9715 25.8717 77.6384 25.3281C77.3053 24.7846 76.6728 24.1885 75.6611 24.1885H46.5Z" fill="#9DCC78"/>
<path d="M42.2817 28.629C40.0984 28.629 38.2419 30.3622 38.2419 32.547V55.0802C38.2419 57.2649 40.0985 58.9981 42.2817 58.9981H78.9844C81.1677 58.9981 83.0242 57.2649 83.0242 55.0802V32.547C83.0242 30.3622 81.1677 28.629 78.9844 28.629H42.2817Z" fill="#CC785F"/>
<path d="M73.9905 36.3634C71.775 36.3634 69.9508 38.1877 69.9508 40.4031V45.803C69.9508 48.0184 71.7751 49.8427 73.9905 49.8427H83.7955C86.011 49.8427 87.8353 48.0184 87.8353 45.803V40.4031C87.8353 38.1877 86.0111 36.3634 83.7955 36.3634H73.9905Z" fill="#CC584B"/>
<path d="M78.9033 39.0634C76.6872 39.0634 74.8635 40.8871 74.8635 43.1031C74.8634 45.3193 76.6872 47.1429 78.9033 47.1429C81.1194 47.1429 82.9431 45.3193 82.943 43.1031C82.943 40.8871 81.1193 39.0634 78.9033 39.0634Z" fill="#AB9F8A"/>
<path d="M104 107H68C66.9 107 66 106.1 66 105V81C66 79.9 66.9 79 68 79H104C105.1 79 106 79.9 106 81V105C106 106.1 105.1 107 104 107Z" fill="#4587E5"/>
<path d="M106 84H66V89.1H106V84Z" fill="#455360"/>
<path d="M80 102H72C71.5 102 71 101.5 71 101V96C71 95.5 71.5 95 72 95H78.6C78.9 95 79.1 95.1 79.3 95.3L80.7 96.7C80.9 96.9 81 97.1 81 97.4V101C81 101.5 80.5 102 80 102Z" fill="#F9D45F"/>
<path d="M102 93.3H85.9V95H102V93.3Z" fill="#ADCBEA"/>
<path d="M94.6 96.3H85.9V98H94.6V96.3Z" fill="#ADCBEA"/>
<path d="M74 96V97H71V98H74V99H71V100H74V101H75V96H74Z" fill="#EFAF3F"/>
<path d="M78 101V100H81V99H78V98H81V97H78V96H77V101H78Z" fill="#EFAF3F"/>
<path d="M43.4808 89.6252V90.3722C43.4808 94.5548 36.6576 97.9451 28.2413 97.9451C23.5956 97.9451 19.4381 96.911 16.6428 95.2818C17.5853 99.0499 23.9906 102.169 31.7581 102.169C40.1744 102.169 46.9976 98.5075 46.9976 94.3249C46.9976 92.4858 45.6753 90.8651 43.4808 89.6252Z" fill="#FCC62D"/>
<path d="M31.7581 102.169C23.3418 102.169 16.5186 98.5075 16.5186 94.3249V99.4222C16.5186 103.605 23.3418 106.996 31.7581 106.996C40.1744 106.996 46.9976 103.605 46.9976 99.4222V94.3249C46.9976 98.5075 40.1744 102.169 31.7581 102.169Z" fill="#E4AF18"/>
<path d="M18.277 102.983C18.6228 103.308 19.0149 103.619 19.4492 103.915V98.9124C19.0149 98.6046 18.6228 98.2818 18.277 97.9451V102.983Z" fill="#CE9912"/>
<path d="M44.0669 98.9124V103.915C44.5012 103.62 44.8933 103.308 45.2392 102.983V97.9451C44.8939 98.2818 44.5018 98.6046 44.0669 98.9124Z" fill="#CE9912"/>
<path d="M20.6215 104.618C20.9919 104.816 21.3834 105.002 21.7937 105.179V100.236C21.3834 100.05 20.9919 99.8536 20.6215 99.6473V104.618Z" fill="#CE9912"/>
<path d="M41.7224 105.178C42.1327 105.002 42.5242 104.815 42.8947 104.618V99.6467C42.5242 99.853 42.1327 100.05 41.7224 100.235V105.178Z" fill="#CE9912"/>
<path d="M22.9661 105.635C23.3447 105.769 23.7357 105.893 24.1383 106.009V101.113C23.7357 100.99 23.3447 100.858 22.9661 100.717V105.635Z" fill="#CE9912"/>
<path d="M39.3778 106.009C39.7805 105.893 40.1714 105.769 40.5501 105.635V100.717C40.1714 100.858 39.7805 100.99 39.3778 101.113V106.009Z" fill="#CE9912"/>
<path d="M25.8967 106.443C26.2795 106.523 26.671 106.594 27.069 106.657V101.804C26.671 101.736 26.2795 101.66 25.8967 101.575V106.443Z" fill="#CE9912"/>
<path d="M36.4471 106.657C36.8451 106.593 37.2367 106.522 37.6194 106.443V101.574C37.2367 101.659 36.8451 101.735 36.4471 101.804V106.657Z" fill="#CE9912"/>
<path d="M29.4136 106.935C29.7993 106.964 30.1908 106.985 30.5858 106.999V102.171C30.1908 102.155 29.7993 102.133 29.4136 102.101V106.935Z" fill="#CE9912"/>
<path d="M32.9303 107C33.3254 106.985 33.7169 106.965 34.1026 106.935V102.101C33.7169 102.133 33.3254 102.155 32.9303 102.171V107Z" fill="#CE9912"/>
<path d="M28.2412 93.1139C19.8249 93.1139 13.0017 89.4526 13.0017 85.27V90.3674C13.0017 94.5499 19.8249 97.9409 28.2412 97.9409C36.6576 97.9409 43.4808 94.5499 43.4808 90.3674V85.27C43.4808 89.4526 36.6576 93.1139 28.2412 93.1139Z" fill="#E4AF18"/>
<path d="M14.7601 93.9279C15.106 94.2531 15.4981 94.5644 15.9324 94.8601V89.8575C15.4981 89.5498 15.106 89.227 14.7601 88.8909V93.9279Z" fill="#CE9912"/>
<path d="M40.55 89.8575V94.8601C40.9844 94.565 41.3765 94.2531 41.7223 93.9279V88.8903C41.3771 89.227 40.985 89.5498 40.55 89.8575Z" fill="#CE9912"/>
<path d="M17.1046 95.5636C17.4751 95.7609 17.8666 95.9474 18.2769 96.1242V91.1807C17.8666 90.9949 17.4751 90.7988 17.1046 90.5924V95.5636Z" fill="#CE9912"/>
<path d="M38.2056 96.1236C38.6159 95.9474 39.0074 95.7609 39.3778 95.563V90.5918C39.0074 90.7982 38.6159 90.9949 38.2056 91.1801V96.1236Z" fill="#CE9912"/>
<path d="M19.4492 96.5803C19.8279 96.7137 20.2188 96.838 20.6215 96.9538V92.058C20.2188 91.9349 19.8279 91.8028 19.4492 91.6622V96.5803Z" fill="#CE9912"/>
<path d="M35.861 96.9538C36.2636 96.838 36.6546 96.7137 37.0332 96.5803V91.6622C36.6546 91.8028 36.2636 91.9349 35.861 92.058V96.9538Z" fill="#CE9912"/>
<path d="M22.3799 97.3882C22.7626 97.4679 23.1542 97.5391 23.5522 97.6024V92.7489C23.1542 92.6807 22.7626 92.6047 22.3799 92.5202V97.3882Z" fill="#CE9912"/>
<path d="M32.9303 97.603C33.3283 97.5391 33.7198 97.4679 34.1026 97.3888V92.5202C33.7198 92.6047 33.3283 92.6807 32.9303 92.7495V97.603Z" fill="#CE9912"/>
<path d="M25.8967 97.8806C26.2824 97.9101 26.6739 97.9307 27.069 97.9451V93.1163C26.6739 93.1006 26.2824 93.0789 25.8967 93.0469V97.8806Z" fill="#CE9912"/>
<path d="M29.4136 97.9451C29.8086 97.9301 30.2002 97.9102 30.5858 97.8806V93.0463C30.2002 93.0783 29.8086 93.1 29.4136 93.1163V97.9451Z" fill="#CE9912"/>
<path d="M43.0804 92.0936C41.5114 95.446 35.466 97.9451 28.2412 97.9451C25.5427 97.9451 23.0094 97.5952 20.8108 96.984C22.9373 98.4701 26.722 99.7348 31.7581 99.7348C39.7776 99.7348 44.6531 96.5302 44.6531 94.3249C44.6531 93.5888 44.1027 92.808 43.0804 92.0936Z" fill="#FFD949"/>
<path d="M31.1719 91.9114C22.7556 91.9114 15.9324 88.5204 15.9324 84.3378V80.9275C14.0913 82.1156 13.0017 83.6053 13.0017 85.2743C13.0017 89.4569 19.8249 93.1181 28.2412 93.1181C32.2938 93.1181 35.9736 92.268 38.7032 90.9206C36.4812 91.55 33.9121 91.9114 31.1719 91.9114Z" fill="#FFD949"/>
<path d="M31.1719 87.0802C22.7556 87.0802 15.9324 83.4189 15.9324 79.2363V84.3336C15.9324 88.5162 22.7556 91.9072 31.1719 91.9072C39.5882 91.9072 46.4114 88.5162 46.4114 84.3336V79.2363C46.4114 83.4189 39.5882 87.0802 31.1719 87.0802Z" fill="#E4AF18"/>
<path d="M17.6908 87.8941C18.0366 88.2193 18.4287 88.5307 18.8631 88.8263V83.8237C18.4287 83.516 18.0366 83.1932 17.6908 82.8571V87.8941Z" fill="#CE9912"/>
<path d="M43.4808 83.8237V88.8263C43.9152 88.5313 44.3073 88.2193 44.6531 87.8941V82.8565C44.3079 83.1932 43.9157 83.516 43.4808 83.8237Z" fill="#CE9912"/>
<path d="M20.0354 89.5299C20.4058 89.7272 20.7974 89.9136 21.2077 90.0904V85.1469C20.7974 84.9611 20.4058 84.765 20.0354 84.5587V89.5299Z" fill="#CE9912"/>
<path d="M41.1362 90.0898C41.5465 89.9136 41.9381 89.7272 42.3085 89.5293V84.5581C41.9381 84.7644 41.5465 84.9611 41.1362 85.1464V90.0898Z" fill="#CE9912"/>
<path d="M22.3799 90.5466C22.7585 90.6799 23.1495 90.8042 23.5522 90.9201V86.0243C23.1495 85.9012 22.7585 85.769 22.3799 85.6284V90.5466Z" fill="#CE9912"/>
<path d="M38.7917 90.9201C39.1944 90.8042 39.5854 90.6799 39.964 90.5466V85.6284C39.5854 85.769 39.1944 85.9012 38.7917 86.0243V90.9201Z" fill="#CE9912"/>
<path d="M25.3105 91.3545C25.6933 91.4341 26.0848 91.5053 26.4828 91.5687V86.7151C26.0848 86.6469 25.6933 86.5709 25.3105 86.4865V91.3545Z" fill="#CE9912"/>
<path d="M35.861 91.5693C36.2589 91.5053 36.6505 91.4341 37.0332 91.3551V86.4865C36.6505 86.5709 36.2589 86.6469 35.861 86.7157V91.5693Z" fill="#CE9912"/>
<path d="M28.8274 91.8468C29.2131 91.8764 29.6046 91.8969 29.9997 91.9114V87.0826C29.6046 87.0669 29.2131 87.0452 28.8274 87.0132V91.8468Z" fill="#CE9912"/>
<path d="M32.3442 91.9114C32.7393 91.8963 33.1308 91.8764 33.5165 91.8468V87.0126C33.1308 87.0446 32.7393 87.0663 32.3442 87.0826V91.9114Z" fill="#CE9912"/>
<path d="M46.4114 79.2405C46.4114 83.4231 39.5882 87.0844 31.1719 87.0844C22.7556 87.0844 15.9324 83.4231 15.9324 79.2405C15.9324 75.0579 22.7556 72 31.1719 72C39.5882 72 46.4114 75.0579 46.4114 79.2405Z" fill="#FCC62D"/>
<path d="M31.172 84.6504C23.1525 84.6504 18.277 81.4464 18.277 79.2405C18.277 77.0352 23.1525 73.8101 31.172 73.8101C39.1915 73.8101 44.067 77.0352 44.067 79.2405C44.067 81.4464 39.1915 84.6504 31.172 84.6504Z" fill="#FFD949"/>
<path d="M35.1466 80.0605C35.6272 79.9555 35.9091 79.6502 35.8054 79.302L35.694 78.9304C35.6125 78.657 35.2954 78.429 34.9068 78.3155C34.3781 77.1528 33.03 76.7317 31.0278 76.7317C30.9328 76.7317 30.8402 76.7341 30.7488 76.7377C30.0654 76.7667 29.3837 76.6991 28.8521 76.4988C28.6352 76.4173 28.4588 76.3322 28.3421 76.2435C28.2894 76.2037 28.1616 76.2291 28.1616 76.2797C28.1616 76.3678 28.168 76.4722 28.1868 76.5881C28.2595 77.0388 28.1727 76.9712 27.7402 77.4207C27.4893 77.6826 27.2894 77.9843 27.1446 78.3173C26.7584 78.4314 26.443 78.6589 26.3616 78.931L26.2502 79.3027C26.1464 79.6508 26.4284 79.9561 26.909 80.0611C27.0462 80.9517 27.6341 81.7337 28.9159 82.1645L28.8456 82.7902C28.8268 82.9573 28.6868 83.1118 28.4828 83.1878L25.8973 84.1484C27.4072 84.4742 29.1281 84.6709 31.0278 84.6709C32.9011 84.6709 34.6003 84.4796 36.0949 84.1628L33.5658 83.1896C33.3659 83.1124 33.2287 82.9591 33.2106 82.795L33.1396 82.1645C34.4215 81.7337 35.0094 80.9511 35.1466 80.0605Z" fill="#F0C41B"/>
</svg>
