<svg width="125" height="125" viewBox="0 0 125 125" fill="none" xmlns="http://www.w3.org/2000/svg">
<rect width="125" height="125" rx="10" fill="#E4E4E6"/>
<path d="M38.8362 46.8333C37.2229 46.8333 35.8881 48.1681 35.8881 49.7815V79.7652C35.8881 81.3785 37.2229 82.7133 38.8362 82.7133H86.1593C87.7727 82.7133 89.1075 81.3785 89.1075 79.7652V49.7815C89.1075 48.1681 87.7727 46.8333 86.1593 46.8333H38.8362Z" fill="white"/>
<path d="M56.3285 42.2911C54.7152 42.2911 53.3804 43.6259 53.3804 45.2392V49.5632C53.3804 51.1765 54.7152 52.5113 56.3285 52.5113H68.667C70.2804 52.5113 71.637 51.1765 71.637 49.5632V45.2392C71.637 43.6259 70.2804 42.2911 68.667 42.2911H56.3285Z" fill="#4C6CEB"/>
<path d="M65.7625 58.0583C65.3897 58.1024 65.0475 58.2866 64.8055 58.5736C64.5634 58.8606 64.4396 59.2291 64.459 59.6041C64.4785 59.979 64.6397 60.3325 64.9102 60.5929C65.1806 60.8534 65.54 61.0012 65.9154 61.0065H81.1802C81.3842 61.0236 81.5895 60.9984 81.7832 60.9321C81.9769 60.8658 82.1547 60.7598 82.3054 60.6212C82.4561 60.4827 82.5764 60.3146 82.6587 60.1271C82.7409 59.9397 82.7834 59.7371 82.7834 59.5324C82.7834 59.3277 82.7409 59.1251 82.6587 58.9377C82.5764 58.7502 82.4561 58.5821 82.3054 58.4436C82.1547 58.305 81.9769 58.199 81.7832 58.1327C81.5895 58.0664 81.3842 58.0412 81.1802 58.0583H65.9154C65.8645 58.0557 65.8134 58.0557 65.7625 58.0583Z" fill="#444444"/>
<path d="M65.9154 63.605C65.5215 63.605 65.1438 63.7616 64.8654 64.0401C64.5869 64.3186 64.4304 64.6962 64.4304 65.09C64.4304 65.4839 64.5869 65.8615 64.8654 66.14C65.1438 66.4185 65.5215 66.575 65.9154 66.575H81.1802C81.574 66.575 81.9517 66.4185 82.2302 66.14C82.5087 65.8615 82.6652 65.4839 82.6652 65.09C82.6652 64.6962 82.5087 64.3186 82.2302 64.0401C81.9517 63.7616 81.574 63.605 81.1802 63.605H65.9154Z" fill="#444444"/>
<path d="M65.7625 69.1738C65.3899 69.2181 65.0479 69.4024 64.8061 69.6894C64.5642 69.9763 64.4404 70.3447 64.4599 70.7195C64.4793 71.0943 64.6405 71.4476 64.9107 71.708C65.181 71.9684 65.5401 72.1164 65.9154 72.1219H81.1802C81.3843 72.1392 81.5897 72.1138 81.7834 72.0475C81.9772 71.9813 82.1551 71.8756 82.3058 71.737C82.4566 71.5985 82.5769 71.4301 82.6593 71.2426C82.7416 71.0551 82.7841 70.8526 82.7841 70.6479C82.7841 70.4431 82.7416 70.2406 82.6593 70.0531C82.5769 69.8656 82.4566 69.6972 82.3058 69.5587C82.1551 69.4201 81.9772 69.3144 81.7834 69.2482C81.5897 69.1819 81.3843 69.1565 81.1802 69.1738H65.9154C65.8645 69.1711 65.8135 69.1711 65.7625 69.1738Z" fill="#444444"/>
<path d="M45.6934 54.6076C44.08 54.6076 42.7234 55.9642 42.7234 57.5776V71.9689C42.7234 73.5822 44.08 74.9389 45.6934 74.9389H58.2721C59.8854 74.9389 61.2421 73.5822 61.2421 71.9689V57.5776C61.2421 55.9642 59.8854 54.6076 58.2721 54.6076H45.6934Z" fill="#E45353"/>
<path d="M51.9827 59.1282C49.4093 59.1273 47.3096 61.2481 47.3094 63.8234C47.3097 64.4607 47.2111 65.1971 47.3967 66.0727C47.4589 66.3656 47.9061 66.5355 48.0955 66.8374C47.3462 67.4568 46.3795 67.8806 46.0209 68.7373C45.4082 70.2006 45.2131 71.8407 45.2129 73.4106C45.2218 74.2235 45.8849 74.8769 46.6979 74.8738H57.2675C58.0719 74.8651 58.7219 74.2152 58.7307 73.4106C58.7305 71.8169 58.5105 70.1538 57.8571 68.6936C57.4822 67.8561 56.519 67.4656 55.7825 66.8592C55.973 66.5763 56.4031 66.4244 56.4813 66.1392C56.7209 65.2638 56.6555 64.5084 56.6561 63.8244C56.6558 61.25 54.5554 59.1295 51.9827 59.1292L51.9827 59.1282Z" fill="#EDB666"/>
</svg>
