<svg width="125" height="125" viewBox="0 0 125 125" fill="none" xmlns="http://www.w3.org/2000/svg">
<rect width="125" height="125" rx="10" fill="#E5E5E5"/>
<path d="M37.8177 57.7083C37.8492 58.1238 37.8944 58.5122 37.8944 58.9375C37.8944 63.5174 36.0593 67.554 33.2084 70H43.0417H47.9584H57.7917C54.94 67.554 53.1061 63.5174 53.1061 58.9375C53.1061 58.5122 53.1504 58.1238 53.1823 57.7083H47.9584H43.0417H37.8177Z" fill="#95A5A6"/>
<path d="M37.8177 57.7083C37.8491 57.9542 37.8944 58.4458 37.8944 58.9375C37.8944 60.1667 37.7808 61.3958 37.5104 62.625H53.4895C53.2191 61.3958 53.106 60.1667 53.106 58.9375C53.106 58.4458 53.1503 57.9542 53.1823 57.7083H47.9583H43.0416H37.8177Z" fill="#7F8C8D"/>
<path d="M18.4583 18.375C17.1006 18.375 16 19.3583 16 20.8333V23.2917V28.2083V33.125V38.0417V40.5V42.9583V45.4167V50.3333V55.25V57.7083C16 58.9375 17.1006 60.1667 18.4583 60.1667H20.9167H52.875H67.625H70.0833H72.5417C73.8987 60.1667 75 58.9375 75 57.7083V55.25V38.0417V35.5833V33.125V28.2083V23.2917V20.8333C75 19.3583 73.8987 18.375 72.5417 18.375H70.0833H57.7917H55.3333H33.2083H23.375H20.9167H18.4583Z" fill="#BDC3C7"/>
<path d="M72.5417 20.8333H18.4584V55.25H72.5417V20.8333Z" fill="#34495E"/>
<path d="M72.5416 23.2917L20.9166 55.25H69.0557H72.5416V51.3167V23.2917Z" fill="#2C3E50"/>
<path d="M75 106V74C75 71.8 76.8 70 79 70H95C97.2 70 99 71.8 99 74V106C99 108.2 97.2 110 95 110H79C76.8 110 75 108.2 75 106Z" fill="#37474F"/>
<path d="M95 73H79C78.4 73 78 73.4 78 74V103C78 103.6 78.4 104 79 104H95C95.6 104 96 103.6 96 103V74C96 73.4 95.6 73 95 73Z" fill="#BBDEFB"/>
<path d="M90 106H84V108H90V106Z" fill="#78909C"/>
</svg>
