<svg width="125" height="125" viewBox="0 0 125 125" fill="none" xmlns="http://www.w3.org/2000/svg">
<rect width="125" height="125" rx="10" fill="#E5E5E5"/>
<path d="M87.2531 80.0219L69.8703 62.7781L72.2343 60.4141L68.3406 56.5203L56.5203 68.3406L60.414 72.2344L62.0828 70.5656L66.6718 75.0156H70.8437V79.1875H75.0156V83.3594H79.1875V87.5313L80.5781 88.6438C80.7171 88.7828 80.9953 88.9219 81.1343 88.9219L86.6968 88.3656C87.114 88.3656 87.5312 87.9484 87.5312 87.5313V80.5781C87.5312 80.3 87.3921 80.1609 87.2531 80.0219Z" fill="#74777B"/>
<path d="M84.6109 83.2203L68.2015 66.6719C67.9234 66.3937 67.9234 65.9766 68.2015 65.6984C68.4796 65.4203 68.8968 65.4203 69.175 65.6984L85.4453 82.2469C85.7234 82.525 85.7234 82.9422 85.4453 83.2203C85.3062 83.3594 84.889 83.3594 84.6109 83.2203Z" fill="#CBCCCD"/>
<path d="M52.7656 36.0781C43.5875 36.0781 36.0781 43.5875 36.0781 52.7656C36.0781 61.9438 43.5875 69.4531 52.7656 69.4531C61.9438 69.4531 69.4531 61.9438 69.4531 52.7656C69.4531 43.5875 61.9438 36.0781 52.7656 36.0781ZM50.2625 55.1297C47.6203 55.1297 45.3953 52.9047 45.3953 50.2625C45.3953 47.6203 47.6203 45.3953 50.2625 45.3953C52.9047 45.3953 55.1297 47.6203 55.1297 50.2625C55.1297 52.9047 52.9047 55.1297 50.2625 55.1297Z" fill="#9AD852"/>
</svg>
