<svg width="111" height="74" viewBox="0 0 111 74" fill="none" xmlns="http://www.w3.org/2000/svg">
<path d="M95.3607 27.595C97.908 36.3279 92.8952 45.4724 84.1646 48.0202C75.4341 50.568 66.2914 45.5543 63.7441 36.8214C61.1968 28.0885 66.2096 18.944 74.9401 16.3962C83.6706 13.8484 92.8133 18.8621 95.3607 27.595Z" stroke="#DC688B" stroke-width="2"/>
<line y1="-1" x2="25.8981" y2="-1" transform="matrix(0.692254 0.721586 -0.721502 0.692483 91.072 44.9662)" stroke="#DC688B" stroke-width="2"/>
<path d="M23.54 11.2C24.0387 11.2 24.4493 11.376 24.772 11.728C25.0947 12.0507 25.256 12.4613 25.256 12.96V17.052C25.256 18.02 24.8747 18.504 24.112 18.504H22.968C22.2053 18.504 21.824 18.02 21.824 17.052V14.676H9.284V24.84H18.964C19.316 24.84 19.6093 24.972 19.844 25.236C20.108 25.4707 20.24 25.764 20.24 26.116V27.04C20.24 27.392 20.108 27.7 19.844 27.964C19.6093 28.1987 19.316 28.316 18.964 28.316H9.284V38.524H12.804C13.7427 38.524 14.212 38.92 14.212 39.712V40.812C14.212 41.604 13.7427 42 12.804 42H4.18C3.212 42 2.728 41.604 2.728 40.812V39.712C2.728 38.92 3.212 38.524 4.18 38.524H5.324V14.676H4.18C3.212 14.676 2.728 14.28 2.728 13.488V12.388C2.728 11.596 3.212 11.2 4.18 11.2H23.54ZM33.1392 15.732C32.3179 15.732 31.6286 15.4533 31.0712 14.896C30.5139 14.3387 30.2352 13.6493 30.2352 12.828C30.2352 12.0067 30.5139 11.332 31.0712 10.804C31.6286 10.2467 32.3179 9.968 33.1392 9.968C33.9606 9.968 34.6352 10.2467 35.1632 10.804C35.7206 11.332 35.9992 12.0067 35.9992 12.828C35.9992 13.6493 35.7206 14.3387 35.1632 14.896C34.6352 15.4533 33.9606 15.732 33.1392 15.732ZM30.7192 42C29.7806 42 29.3112 41.604 29.3112 40.812V39.712C29.3112 38.92 29.7806 38.524 30.7192 38.524H31.8632V23.476H30.7192C29.7806 23.476 29.3112 23.08 29.3112 22.288V21.188C29.3112 20.396 29.7806 20 30.7192 20H34.1952C34.6646 20 35.0459 20.1613 35.3392 20.484C35.6619 20.7773 35.8232 21.1587 35.8232 21.628V38.524H36.9672C37.9352 38.524 38.4192 38.92 38.4192 39.712V40.812C38.4192 41.604 37.9352 42 36.9672 42H30.7192ZM64.3359 38.524C65.2746 38.524 65.7439 38.92 65.7439 39.712V40.812C65.7439 41.604 65.2746 42 64.3359 42H58.2199C57.2519 42 56.7679 41.604 56.7679 40.812V39.712C56.7679 38.92 57.2519 38.524 58.2199 38.524H59.2319V30.032C59.2319 27.4213 58.9092 25.6027 58.2639 24.576C57.6479 23.52 56.5626 22.992 55.0079 22.992C53.9226 22.992 52.8812 23.3587 51.8839 24.092C50.9159 24.796 50.1239 25.72 49.5079 26.864C48.9212 28.008 48.6279 29.2107 48.6279 30.472V38.524H49.6399C50.6079 38.524 51.0919 38.92 51.0919 39.712V40.812C51.0919 41.604 50.6079 42 49.6399 42H43.5239C42.5852 42 42.1159 41.604 42.1159 40.812V39.712C42.1159 38.92 42.5852 38.524 43.5239 38.524H44.6679V23.476H43.5239C42.5852 23.476 42.1159 23.08 42.1159 22.288V21.188C42.1159 20.396 42.5852 20 43.5239 20H46.9999C47.4692 20 47.8506 20.1613 48.1439 20.484C48.4666 20.7773 48.6279 21.1587 48.6279 21.628V24.928C49.2439 23.3733 50.2412 22.0973 51.6199 21.1C53.0279 20.0733 54.4799 19.56 55.9759 19.56C60.7866 19.56 63.1919 22.8453 63.1919 29.416V38.524H64.3359ZM90.6551 38.524C91.6231 38.524 92.1071 38.92 92.1071 39.712V40.812C92.1071 41.604 91.6231 42 90.6551 42H87.2231C86.7538 42 86.3578 41.8533 86.0351 41.56C85.7418 41.2373 85.5951 40.8413 85.5951 40.372V37.6C85.0671 38.9787 84.1138 40.1373 82.7351 41.076C81.3858 41.9853 79.9485 42.44 78.4231 42.44C76.6631 42.44 75.1085 41.9853 73.7591 41.076C72.4391 40.1667 71.4125 38.876 70.6791 37.204C69.9751 35.5027 69.6231 33.5227 69.6231 31.264C69.6231 27.6267 70.4738 24.7667 72.1751 22.684C73.9058 20.6013 76.2671 19.56 79.2591 19.56C80.4911 19.56 81.6645 19.8533 82.7791 20.44C83.8938 21.0267 84.8325 21.848 85.5951 22.904V12.916H84.4511C83.4831 12.916 82.9991 12.52 82.9991 11.728V10.628C82.9991 9.836 83.4831 9.44 84.4511 9.44H87.9711C88.4111 9.44 88.7778 9.60133 89.0711 9.924C89.3645 10.2173 89.5111 10.5987 89.5111 11.068V38.524H90.6551ZM79.3031 39.008C80.4471 39.008 81.5031 38.7 82.4711 38.084C83.4391 37.4387 84.2018 36.5733 84.7591 35.488C85.3165 34.4027 85.5951 33.2147 85.5951 31.924V26.204C84.7738 25.1773 83.8498 24.3853 82.8231 23.828C81.8258 23.2707 80.7698 22.992 79.6551 22.992C77.6898 22.992 76.1938 23.7253 75.1671 25.192C74.1405 26.6293 73.6271 28.7267 73.6271 31.484C73.6271 33.86 74.1258 35.708 75.1231 37.028C76.1205 38.348 77.5138 39.008 79.3031 39.008Z" fill="black"/>
</svg>
