<svg width="125" height="125" viewBox="0 0 125 125" fill="none" xmlns="http://www.w3.org/2000/svg">
<rect width="125" height="125" rx="10" fill="#E5E5E5"/>
<path d="M42.75 51.75V56.25V58.5V65.25V67.5V78.75V81C42.75 83.475 44.7647 85.5 47.25 85.5H78.75C81.2363 85.5 83.25 83.475 83.25 81V78.75V67.5V58.5V51.75H42.75Z" fill="#16A085"/>
<path d="M42.75 49.5V54V56.25V63V65.25V76.5V78.75C42.75 81.225 44.7647 83.25 47.25 83.25H78.75C81.2363 83.25 83.25 81.225 83.25 78.75V76.5V65.25V56.25V49.5H42.75Z" fill="#ECF0F1"/>
<path d="M42.75 47.25V51.75V54V60.75V63V74.25V76.5C42.75 78.975 44.7647 81 47.25 81H78.75C81.2363 81 83.25 78.975 83.25 76.5V74.25V63V54V47.25H42.75Z" fill="#BDC3C7"/>
<path d="M42.75 45V49.5V51.75V58.5V60.75V72V74.25C42.75 76.725 44.7647 78.75 47.25 78.75H78.75C81.2363 78.75 83.25 76.725 83.25 74.25V72V60.75V51.75V45H42.75Z" fill="#ECF0F1"/>
<path d="M47.25 36C44.7647 36 42.75 38.025 42.75 40.5V42.75V51.75V56.25V58.5V65.25V67.5V78.75V81C42.75 83.475 44.7647 85.5 47.25 85.5H51.75V83.25H48.375C46.5111 83.25 45 81.675 45 79.875C45 77.85 46.5111 76.5 48.375 76.5H76.5H78.75C81.2363 76.5 83.25 74.475 83.25 72V69.75V58.5V49.5V42.75V40.5C83.25 38.025 81.2363 36 78.75 36H69.75H47.25Z" fill="#16A085"/>
<path d="M54 36V76.5H56.25H76.5H78.75C81.2362 76.5 83.25 74.475 83.25 72V69.75V58.5V49.5V42.75V40.5C83.25 38.025 81.2362 36 78.75 36H69.75H56.25H54Z" fill="#1ABC9C"/>
<path d="M51.75 81V85.5V90L57.375 85.5L63 90V85.5V81H51.75Z" fill="#E74C3C"/>
<path d="M63 78.75H51.75V81H63V78.75Z" fill="#C0392B"/>
</svg>
