<svg width="67" height="67" viewBox="0 0 67 67" fill="none" xmlns="http://www.w3.org/2000/svg">
<circle cx="33.5" cy="33.5" r="33.5" fill="#39ADAD"/>
<path d="M30.4673 30.7766C27.2749 31.3541 24.866 33.8462 24.866 36.8241V44.8969H42.134V36.8241C42.134 33.8462 39.7251 31.3541 36.5327 30.7766C37.9578 29.9214 38.8963 28.4811 38.8963 26.8518C38.8963 24.2334 36.4755 22.1031 33.5 22.1031C30.5245 22.1031 28.1037 24.2334 28.1037 26.8518C28.1037 28.4811 29.0421 29.9214 30.4673 30.7766ZM35.1189 31.6005C38.3917 31.6005 41.0548 33.944 41.0548 36.8241V43.9472H25.9452V36.8241C25.9452 33.944 28.6083 31.6005 31.8811 31.6005H35.1189ZM33.5 23.0528C35.8803 23.0528 37.817 24.7571 37.817 26.8518C37.817 28.9465 35.8803 30.6508 33.5 30.6508C31.1197 30.6508 29.183 28.9465 29.183 26.8518C29.183 24.7571 31.1197 23.0528 33.5 23.0528Z" fill="white"/>
</svg>
