<svg width="97" height="97" viewBox="0 0 97 97" fill="none" xmlns="http://www.w3.org/2000/svg">
<circle cx="48.5" cy="48.5" r="48.5" fill="#39ADAD"/>
<path d="M44.1094 44.5572C39.4875 45.3932 36 49.0012 36 53.3125V65H61V53.3125C61 49.0012 57.5125 45.3932 52.8906 44.5572C54.9539 43.319 56.3125 41.2338 56.3125 38.875C56.3125 35.0841 52.8078 32 48.5 32C44.1922 32 40.6875 35.0841 40.6875 38.875C40.6875 41.2338 42.0461 43.319 44.1094 44.5572ZM50.8438 45.75C55.582 45.75 59.4375 49.1428 59.4375 53.3125V63.625H37.5625V53.3125C37.5625 49.1428 41.418 45.75 46.1562 45.75H50.8438ZM48.5 33.375C51.9461 33.375 54.75 35.8424 54.75 38.875C54.75 41.9076 51.9461 44.375 48.5 44.375C45.0539 44.375 42.25 41.9076 42.25 38.875C42.25 35.8424 45.0539 33.375 48.5 33.375Z" fill="white"/>
</svg>
