<svg width="333" height="125" viewBox="0 0 333 125" fill="none" xmlns="http://www.w3.org/2000/svg">
<rect width="333" height="125" rx="10" fill="#E4E4E6"/>
<path d="M145.5 18.0156C142.159 18.0156 138.894 19.0062 136.116 20.8622C133.338 22.7182 131.174 25.3561 129.895 28.4425C128.617 31.5289 128.282 34.925 128.934 38.2015C129.586 41.4779 131.194 44.4875 133.557 46.8498C135.919 49.2119 138.928 50.8206 142.205 51.4724C145.481 52.124 148.877 51.7895 151.964 50.5111C155.05 49.2327 157.688 47.0678 159.544 44.2902C161.4 41.5125 162.391 38.2469 162.391 34.9062C162.391 30.4266 160.611 26.1304 157.444 22.9627C154.276 19.7952 149.98 18.0156 145.5 18.0156ZM145.5 48.125C142.886 48.125 140.33 47.3497 138.156 45.8973C135.982 44.4448 134.288 42.3803 133.287 39.9648C132.287 37.5494 132.025 34.8916 132.535 32.3274C133.045 29.7632 134.304 27.4078 136.153 25.5592C138.002 23.7105 140.357 22.4515 142.921 21.9415C145.485 21.4314 148.143 21.6932 150.559 22.6937C152.974 23.6942 155.039 25.3885 156.491 27.5623C157.943 29.7361 158.719 32.2918 158.719 34.9062C158.719 38.4121 157.326 41.7743 154.847 44.2533C152.368 46.7323 149.006 48.125 145.5 48.125Z" fill="#F9E109"/>
<path d="M139.859 18.9843L142.832 21.957C143.71 21.7776 144.604 21.6873 145.5 21.6875L148.84 18.3476C145.844 17.7454 142.741 17.9654 139.859 18.9843Z" fill="#FCBC04"/>
<path d="M145.5 22.4219L142.562 14.3438H148.438L145.5 22.4219Z" fill="#57B7EB"/>
<path d="M145.5 9.20312L142.562 14.3438H148.438L145.5 9.20312Z" fill="#84D2F4"/>
<path d="M140.359 9.20312L137.422 14.3438H142.562L140.359 9.20312Z" fill="#84D2F4"/>
<path d="M145.5 9.20312H140.359L142.562 14.3438L145.5 9.20312Z" fill="#57B7EB"/>
<path d="M150.641 9.20312H145.5L148.438 14.3438L150.641 9.20312Z" fill="#57B7EB"/>
<path d="M153.578 14.3438L150.641 9.20312L148.438 14.3438H153.578Z" fill="#84D2F4"/>
<path d="M137.422 14.3438L145.5 22.4211L142.562 14.3438H137.422Z" fill="#4891D3"/>
<path d="M153.578 14.3438H148.438L145.5 22.4219L153.578 14.3438Z" fill="#4891D3"/>
<path d="M146.969 50.3281C143.716 50.329 140.533 49.3907 137.801 47.626C135.069 45.8612 132.905 43.3452 131.569 40.3801C130.233 37.415 129.781 34.1272 130.268 30.9116C130.756 27.6961 132.161 24.6897 134.316 22.2537C132.579 23.7778 131.174 25.6421 130.186 27.7312C129.199 29.8203 128.651 32.0897 128.576 34.3992C128.5 36.7086 128.9 39.0089 129.749 41.1578C130.599 43.3068 131.88 45.2585 133.514 46.8924C135.148 48.5263 137.099 49.8075 139.248 50.657C141.397 51.5064 143.698 51.9058 146.007 51.8306C148.316 51.7554 150.586 51.2071 152.675 50.2197C154.764 49.2323 156.628 47.8268 158.152 46.0901C155.07 48.825 151.09 50.3331 146.969 50.3281Z" fill="#FCBC04"/>
<path d="M216.727 75.2422H211.453V78.7578H216.727V75.2422Z" fill="#969696"/>
<path d="M190.242 47L185.555 77L190.242 107H206.18V47H190.242Z" fill="black"/>
<path d="M190.242 47H174.305V107H190.242V47Z" fill="#4D4D4D"/>
<path d="M190.242 54.0312L185.555 77L190.242 99.9688C202.928 99.9688 213.211 89.6853 213.211 77C213.211 64.3147 202.928 54.0312 190.242 54.0312Z" fill="#4D4D4D"/>
<path d="M167.273 77C167.273 89.6853 177.557 99.9688 190.242 99.9688V54.0312C177.557 54.0312 167.273 64.3147 167.273 77Z" fill="#969696"/>
<path d="M190.242 60.0078L185.555 77L190.242 93.9922C199.627 93.9922 207.234 86.3845 207.234 77C207.234 67.6155 199.627 60.0078 190.242 60.0078Z" fill="#ABECEC"/>
<path d="M173.25 77C173.25 86.3845 180.858 93.9922 190.242 93.9922V60.0078C180.858 60.0078 173.25 67.6155 173.25 77Z" fill="#D5F6F5"/>
<path d="M190.242 63.5234L185.555 77L190.242 90.4766C197.685 90.4766 203.719 84.4429 203.719 77C203.719 69.5571 197.685 63.5234 190.242 63.5234Z" fill="#D5F6F5"/>
<path d="M176.766 77C176.766 84.4429 182.799 90.4766 190.242 90.4766V63.5234C182.799 63.5234 176.766 69.5571 176.766 77Z" fill="white"/>
<path d="M192 75.2422L190.828 77L192 78.7578H199.148V75.2422H192Z" fill="black"/>
<path d="M192 68.0938H188.484V78.7578H192V68.0938Z" fill="#272727"/>
<g clip-path="url(#clip0_216_97)">
<path d="M133.479 110.866C125.143 110.866 114.371 104.497 111.655 98.0341C110.438 95.0369 110.906 92.3205 113.154 90.0726C118.306 85.0146 124.3 80.425 128.421 78.2707C128.234 77.9897 128.047 77.7087 127.953 77.4277C127.297 76.1164 127.297 74.805 127.859 73.9621C128.234 73.4938 128.983 72.9318 130.482 73.0254C137.413 73.5874 138.069 77.615 138.631 81.1743C143.221 82.4856 149.309 85.6702 153.805 90.0725C156.053 92.3204 156.615 95.0367 155.303 98.0341C152.587 104.497 141.815 110.866 133.479 110.866ZM129.264 79.3011C125.237 81.2681 119.148 85.9513 114.09 91.0092C112.217 92.8825 111.843 95.0369 112.873 97.5658C115.402 103.56 125.799 109.649 133.479 109.649C141.253 109.649 151.65 103.56 154.086 97.5658C155.116 95.0369 154.741 92.8826 152.868 91.0092C148.84 86.9816 143.22 83.8906 138.818 82.5793C139.193 84.64 139.848 86.4196 142.19 87.169C142.565 87.2627 142.658 87.6373 142.565 88.012C142.471 88.3867 142.097 88.4803 141.722 88.3867C138.537 87.2627 137.882 84.7337 137.507 82.2047C136.664 82.0174 135.821 81.9237 135.165 81.83C134.791 83.6097 133.667 85.764 130.669 88.012C130.388 88.1993 130.014 88.1993 129.733 87.9183C129.545 87.6373 129.545 87.2626 129.826 87.0753C132.074 85.3893 133.479 83.6096 133.854 81.83C132.074 81.3617 130.388 80.5187 129.264 79.3011ZM135.259 80.6124C135.915 80.6124 136.57 80.7061 137.32 80.8934C136.758 77.6151 136.102 74.8051 130.388 74.3368C129.826 74.3368 129.171 74.3368 128.89 74.7114C128.609 75.1797 128.702 76.0227 129.077 76.8657C129.171 77.1467 129.358 77.4277 129.545 77.7087C130.107 77.4277 130.669 77.2404 131.044 77.1467C131.887 76.8657 132.917 77.053 133.667 77.5214C134.416 77.9898 134.884 78.7391 135.072 79.5821C135.165 79.8631 135.259 80.2377 135.259 80.6124ZM130.482 78.7391C131.419 79.5821 132.636 80.2378 133.948 80.5188C133.948 80.3315 133.948 80.0505 133.854 79.8631C133.76 79.3948 133.479 78.9264 133.011 78.6454C132.543 78.3644 131.981 78.2707 131.419 78.4581C131.138 78.4581 130.857 78.5517 130.482 78.7391Z" fill="#415A6B"/>
<path d="M150.152 105.527C150.152 107.401 148.559 108.993 146.686 108.993C146.218 108.993 145.749 108.899 145.375 108.712C145.281 110.866 143.502 112.552 141.347 112.552C140.598 112.552 139.942 112.365 139.287 111.99C139.287 112.084 139.287 112.178 139.287 112.271C139.287 115.362 136.758 117.985 133.573 117.985C130.388 117.985 127.859 115.456 127.859 112.271C127.859 112.178 127.859 112.084 127.859 111.99C127.297 112.365 126.548 112.552 125.799 112.552C123.644 112.552 121.865 110.866 121.771 108.712C121.396 108.899 120.928 108.993 120.46 108.993C118.493 108.993 116.994 107.401 116.994 105.527C116.994 103.654 118.586 102.062 120.46 102.062C122.239 102.062 123.644 103.373 123.925 105.059C124.487 104.684 125.143 104.591 125.892 104.591C127.953 104.591 129.639 106.089 129.92 108.056C130.95 107.12 132.262 106.651 133.667 106.651C135.072 106.651 136.383 107.213 137.413 108.056C137.694 106.089 139.38 104.591 141.441 104.591C142.19 104.591 142.846 104.778 143.408 105.059C143.595 103.373 145.094 102.062 146.874 102.062C148.559 102.062 150.152 103.654 150.152 105.527Z" fill="#F3F3F3"/>
<path d="M133.479 117.048C136.169 117.048 138.35 114.91 138.35 112.271C138.35 109.633 136.169 107.494 133.479 107.494C130.789 107.494 128.609 109.633 128.609 112.271C128.609 114.91 130.789 117.048 133.479 117.048Z" fill="#66C6B9"/>
<path d="M136.851 110.492C137.226 111.241 137.226 111.99 136.757 112.178C136.289 112.365 135.634 111.99 135.259 111.241C134.884 110.492 134.884 109.742 135.353 109.555C135.727 109.368 136.383 109.836 136.851 110.492Z" fill="white"/>
<path d="M141.254 111.709C143.012 111.709 144.438 110.325 144.438 108.618C144.438 106.911 143.012 105.527 141.254 105.527C139.495 105.527 138.069 106.911 138.069 108.618C138.069 110.325 139.495 111.709 141.254 111.709Z" fill="#66C6B9"/>
<path d="M143.408 110.866C142.846 111.428 142.096 111.709 141.254 111.709C139.474 111.709 138.069 110.304 138.069 108.525C138.069 107.213 138.818 106.183 139.942 105.715C139.286 106.277 138.912 107.12 138.912 107.963C138.912 109.649 140.317 111.054 142.096 111.054C142.565 111.147 143.033 111.054 143.408 110.866Z" fill="#4ABAA5"/>
<path d="M143.408 107.401C143.689 107.869 143.595 108.337 143.314 108.525C143.033 108.712 142.565 108.431 142.377 107.963C142.096 107.494 142.19 107.026 142.471 106.839C142.752 106.651 143.127 106.932 143.408 107.401Z" fill="white"/>
<path d="M146.592 108.15C148.041 108.15 149.215 106.976 149.215 105.527C149.215 104.079 148.041 102.905 146.592 102.905C145.144 102.905 143.97 104.079 143.97 105.527C143.97 106.976 145.144 108.15 146.592 108.15Z" fill="#66C6B9"/>
<path d="M148.372 107.401C147.904 107.869 147.248 108.15 146.592 108.15C145.187 108.15 143.97 107.026 143.97 105.527C143.97 104.497 144.625 103.56 145.468 103.186C145 103.654 144.625 104.31 144.625 105.059C144.625 106.464 145.749 107.588 147.248 107.588C147.716 107.682 148.091 107.588 148.372 107.401Z" fill="#4ABAA5"/>
<path d="M148.395 104.561C148.181 104.148 147.821 103.909 147.591 104.029C147.362 104.148 147.35 104.579 147.564 104.993C147.779 105.406 148.139 105.644 148.368 105.525C148.598 105.406 148.61 104.974 148.395 104.561Z" fill="white"/>
<path d="M125.705 111.709C127.464 111.709 128.89 110.325 128.89 108.618C128.89 106.911 127.464 105.527 125.705 105.527C123.946 105.527 122.52 106.911 122.52 108.618C122.52 110.325 123.946 111.709 125.705 111.709Z" fill="#66C6B9"/>
<path d="M123.551 110.866C124.113 111.428 124.862 111.709 125.705 111.709C127.485 111.709 128.89 110.304 128.89 108.525C128.89 107.213 128.14 106.183 127.016 105.715C127.672 106.277 128.047 107.12 128.047 107.963C128.047 109.649 126.642 111.054 124.862 111.054C124.394 111.147 123.925 111.054 123.551 110.866Z" fill="#4ABAA5"/>
<path d="M123.551 107.401C123.27 107.869 123.363 108.337 123.644 108.525C123.925 108.712 124.394 108.431 124.581 107.963C124.862 107.494 124.768 107.026 124.487 106.839C124.206 106.651 123.832 106.932 123.551 107.401Z" fill="white"/>
<path d="M120.366 108.15C121.815 108.15 122.989 106.976 122.989 105.527C122.989 104.079 121.815 102.905 120.366 102.905C118.918 102.905 117.744 104.079 117.744 105.527C117.744 106.976 118.918 108.15 120.366 108.15Z" fill="#66C6B9"/>
<path d="M118.586 107.401C119.055 107.869 119.71 108.15 120.366 108.15C121.771 108.15 122.989 107.026 122.989 105.527C122.989 104.497 122.333 103.56 121.49 103.186C121.958 103.654 122.333 104.31 122.333 105.059C122.333 106.464 121.209 107.588 119.71 107.588C119.242 107.682 118.867 107.588 118.586 107.401Z" fill="#4ABAA5"/>
<path d="M118.538 104.643C118.324 105.057 118.336 105.488 118.565 105.607C118.795 105.727 119.155 105.488 119.37 105.075C119.584 104.662 119.572 104.23 119.342 104.111C119.113 103.992 118.753 104.23 118.538 104.643Z" fill="white"/>
<path d="M136.851 110.492C137.226 111.241 137.226 111.99 136.757 112.178C136.289 112.365 135.634 111.99 135.259 111.241C134.884 110.492 134.884 109.742 135.353 109.555C135.727 109.368 136.383 109.836 136.851 110.492Z" fill="white"/>
<path d="M143.408 107.401C143.689 107.869 143.595 108.337 143.314 108.525C143.033 108.712 142.565 108.431 142.377 107.963C142.096 107.494 142.19 107.026 142.471 106.839C142.752 106.651 143.127 106.932 143.408 107.401Z" fill="white"/>
<path d="M148.395 104.561C148.181 104.148 147.821 103.909 147.591 104.029C147.362 104.148 147.35 104.579 147.564 104.993C147.779 105.406 148.139 105.644 148.368 105.525C148.598 105.406 148.61 104.974 148.395 104.561Z" fill="white"/>
<path d="M123.551 107.401C123.27 107.869 123.363 108.337 123.644 108.525C123.925 108.712 124.394 108.431 124.581 107.963C124.862 107.494 124.768 107.026 124.487 106.839C124.206 106.651 123.832 106.932 123.551 107.401Z" fill="white"/>
<path d="M118.538 104.643C118.324 105.057 118.336 105.488 118.565 105.607C118.795 105.727 119.155 105.488 119.37 105.075C119.584 104.662 119.572 104.23 119.342 104.111C119.113 103.992 118.753 104.23 118.538 104.643Z" fill="white"/>
<path d="M138.35 112.271C138.35 114.894 136.196 117.048 133.573 117.048C130.857 117.048 128.702 114.894 128.702 112.271C128.702 111.99 128.702 111.803 128.796 111.616C129.171 113.957 131.138 115.737 133.573 115.737C136.008 115.737 137.975 113.957 138.35 111.616C138.256 111.803 138.35 112.084 138.35 112.271Z" fill="#4ABAA5"/>
</g>
<defs>
<clipPath id="clip0_216_97">
<rect width="45" height="45" fill="white" transform="translate(111 73)"/>
</clipPath>
</defs>
</svg>
