<svg width="333" height="125" viewBox="0 0 333 125" fill="none" xmlns="http://www.w3.org/2000/svg">
<rect width="333" height="125" rx="10" fill="#E4E4E6"/>
<path d="M145.319 24C145.093 23.9999 144.875 23.9235 144.698 23.7834C144.521 23.6433 144.397 23.4475 144.346 23.228C144.061 22.0245 143.378 20.9524 142.408 20.1852C141.437 19.418 140.237 19.0006 139 19.0006C137.763 19.0006 136.562 19.418 135.592 20.1852C134.622 20.9524 133.939 22.0245 133.654 23.228C133.626 23.3578 133.572 23.4808 133.496 23.5897C133.42 23.6986 133.323 23.7913 133.211 23.8623C133.099 23.9333 132.974 23.9812 132.843 24.0033C132.712 24.0254 132.578 24.0212 132.448 23.9909C132.319 23.9606 132.197 23.9049 132.09 23.8269C131.982 23.749 131.891 23.6504 131.822 23.5369C131.753 23.4235 131.707 23.2974 131.688 23.166C131.668 23.0347 131.674 22.9008 131.707 22.772C132.094 21.1288 133.025 19.6646 134.349 18.6167C135.673 17.5688 137.312 16.9987 139 16.9987C140.688 16.9987 142.327 17.5688 143.651 18.6167C144.974 19.6646 145.905 21.1288 146.293 22.772C146.353 23.03 146.308 23.3013 146.168 23.5263C146.028 23.7513 145.805 23.9116 145.547 23.972C145.472 23.9897 145.396 23.999 145.319 24Z" fill="#C6512B"/>
<path d="M156 58H122C120.939 58 119.922 57.5786 119.172 56.8284C118.421 56.0783 118 55.0609 118 54V50C118 49.4696 118.211 48.9609 118.586 48.5858C118.961 48.2107 119.47 48 120 48H158C158.53 48 159.039 48.2107 159.414 48.5858C159.789 48.9609 160 49.4696 160 50V54C160 55.0609 159.579 56.0783 158.828 56.8284C158.078 57.5786 157.061 58 156 58Z" fill="#C6512B"/>
<path d="M156 55H122C120.939 55 119.922 54.5786 119.172 53.8284C118.421 53.0783 118 52.0609 118 51V54C118 55.0609 118.421 56.0783 119.172 56.8284C119.922 57.5786 120.939 58 122 58H156C157.061 58 158.078 57.5786 158.828 56.8284C159.579 56.0783 160 55.0609 160 54V51C160 52.0609 159.579 53.0783 158.828 53.8284C158.078 54.5786 157.061 55 156 55Z" fill="#AD4023"/>
<path d="M156 31.589V55C156 56.5913 155.368 58.1174 154.243 59.2426C153.117 60.3678 151.591 61 150 61H128C126.409 61 124.883 60.3678 123.757 59.2426C122.632 58.1174 122 56.5913 122 55V31.589H156Z" fill="#E67244"/>
<path d="M150 57H128C126.409 57 124.883 56.3679 123.757 55.2426C122.632 54.1174 122 52.5913 122 51V55C122 56.5913 122.632 58.1174 123.757 59.2426C124.883 60.3679 126.409 61 128 61H150C151.591 61 153.117 60.3679 154.243 59.2426C155.368 58.1174 156 56.5913 156 55V51C156 52.5913 155.368 54.1174 154.243 55.2426C153.117 56.3679 151.591 57 150 57Z" fill="#C6512B"/>
<path d="M128.444 39H124C122.939 39 121.922 38.5786 121.172 37.8284C120.421 37.0783 120 36.0609 120 35V28C120 26.4087 120.632 24.8826 121.757 23.7574C122.883 22.6321 124.409 22 126 22H152C153.591 22 155.117 22.6321 156.243 23.7574C157.368 24.8826 158 26.4087 158 28V35C158 36.0609 157.579 37.0783 156.828 37.8284C156.078 38.5786 155.061 39 154 39H128.444Z" fill="#E67244"/>
<path d="M154 35H124C122.939 35 121.922 34.5786 121.172 33.8284C120.421 33.0783 120 32.0609 120 31V35C120 36.0609 120.421 37.0783 121.172 37.8284C121.922 38.5786 122.939 39 124 39H154C155.061 39 156.078 38.5786 156.828 37.8284C157.579 37.0783 158 36.0609 158 35V31C158 32.0609 157.579 33.0783 156.828 33.8284C156.078 34.5786 155.061 35 154 35Z" fill="#C6512B"/>
<path d="M145 55H133C131.939 55 130.922 54.5786 130.172 53.8284C129.421 53.0783 129 52.0609 129 51V49C129 48.4696 129.211 47.9609 129.586 47.5858C129.961 47.2107 130.47 47 131 47H147C147.53 47 148.039 47.2107 148.414 47.5858C148.789 47.9609 149 48.4696 149 49V51C149 52.0609 148.579 53.0783 147.828 53.8284C147.078 54.5786 146.061 55 145 55Z" fill="#C6512B"/>
<path d="M145 52H133C132.036 51.9984 131.106 51.648 130.381 51.0136C129.656 50.3792 129.185 49.5037 129.055 48.549C129.02 48.6968 129.001 48.8481 129 49V51C129 52.0609 129.421 53.0783 130.172 53.8284C130.922 54.5786 131.939 55 133 55H145C146.061 55 147.078 54.5786 147.828 53.8284C148.579 53.0783 149 52.0609 149 51V49C148.999 48.8481 148.98 48.6968 148.945 48.549C148.815 49.5037 148.344 50.3792 147.619 51.0136C146.894 51.648 145.964 51.9984 145 52Z" fill="#AD4023"/>
<path d="M133 38C133 36.8954 132.105 36 131 36C129.895 36 129 36.8954 129 38V40C129 41.1046 129.895 42 131 42C132.105 42 133 41.1046 133 40V38Z" fill="#EAEFF0"/>
<path d="M149 38C149 36.8954 148.105 36 147 36C145.895 36 145 36.8954 145 38V40C145 41.1046 145.895 42 147 42C148.105 42 149 41.1046 149 40V38Z" fill="#EAEFF0"/>
<path d="M202.5 78.0625V71.875C202.5 68.3687 199.819 65.6875 196.312 65.6875H175.688C172.181 65.6875 169.5 68.3687 169.5 71.875V78.0625H202.5Z" fill="#D11C7B"/>
<path d="M169.5 82.1875V98.6875C169.5 102.194 172.181 104.875 175.688 104.875H196.312C199.819 104.875 202.5 102.194 202.5 98.6875V82.1875H169.5Z" fill="#D11C7B"/>
<path d="M175.688 109C174.45 109 173.625 108.175 173.625 106.938V102.812C173.625 101.575 174.45 100.75 175.688 100.75C176.925 100.75 177.75 101.575 177.75 102.812V106.938C177.75 108.175 176.925 109 175.688 109Z" fill="#969696"/>
<path d="M196.312 109C195.075 109 194.25 108.175 194.25 106.938V102.812C194.25 101.575 195.075 100.75 196.312 100.75C197.55 100.75 198.375 101.575 198.375 102.812V106.938C198.375 108.175 197.55 109 196.312 109Z" fill="#BDC3C7"/>
<path d="M192.188 69.8125H179.812C178.575 69.8125 177.75 68.9875 177.75 67.75V45.0625C177.75 43.825 178.575 43 179.812 43H192.188C193.425 43 194.25 43.825 194.25 45.0625V67.75C194.25 68.9875 193.425 69.8125 192.188 69.8125ZM181.875 65.6875H190.125V47.125H181.875V65.6875Z" fill="#BDC3C7"/>
<path d="M194.25 47.125H177.75C176.512 47.125 175.688 46.3 175.688 45.0625C175.688 43.825 176.512 43 177.75 43H194.25C195.488 43 196.312 43.825 196.312 45.0625C196.312 46.3 195.488 47.125 194.25 47.125Z" fill="#969696"/>
</svg>
