<svg width="333" height="125" viewBox="0 0 333 125" fill="none" xmlns="http://www.w3.org/2000/svg">
<rect width="333" height="125" rx="10" fill="#E4E4E6"/>
<path d="M147.063 19.1277C145.951 19.1277 145.256 19.9342 144.891 20.6705C144.525 21.4064 144.363 22.261 144.363 23.1877C144.363 24.1148 144.525 24.9692 144.891 25.7049C145.256 26.4408 145.951 27.2478 147.063 27.2478H179.096C180.208 27.2478 180.903 26.4402 181.269 25.7049C181.634 24.9691 181.817 24.1145 181.817 23.1877C181.817 22.2606 181.634 21.4063 181.269 20.6705C180.903 19.9346 180.208 19.1277 179.096 19.1277H147.063Z" fill="#79EF78"/>
<path d="M148.5 20.1885C147.488 20.1885 146.856 20.784 146.523 21.3281C146.19 21.8717 146.042 22.5033 146.042 23.1878C146.042 23.8728 146.19 24.5039 146.523 25.0475C146.856 25.5911 147.488 26.1872 148.5 26.1872H177.661C178.673 26.1872 179.305 25.5907 179.638 25.0475C179.971 24.5039 180.137 23.8726 180.137 23.1878C180.137 22.5029 179.971 21.8717 179.638 21.3281C179.305 20.7846 178.673 20.1885 177.661 20.1885H148.5Z" fill="#9DCC78"/>
<path d="M144.282 24.629C142.098 24.629 140.242 26.3622 140.242 28.547V51.0802C140.242 53.2649 142.098 54.9981 144.282 54.9981H180.984C183.168 54.9981 185.024 53.2649 185.024 51.0802V28.547C185.024 26.3622 183.168 24.629 180.984 24.629H144.282Z" fill="#CC785F"/>
<path d="M175.991 32.3634C173.775 32.3634 171.951 34.1877 171.951 36.4031V41.803C171.951 44.0184 173.775 45.8427 175.991 45.8427H185.796C188.011 45.8427 189.835 44.0184 189.835 41.803V36.4031C189.835 34.1877 188.011 32.3634 185.796 32.3634H175.991Z" fill="#CC584B"/>
<path d="M180.903 35.0634C178.687 35.0634 176.864 36.8871 176.864 39.1031C176.863 41.3193 178.687 43.1429 180.903 43.1429C183.119 43.1429 184.943 41.3193 184.943 39.1031C184.943 36.8871 183.119 35.0634 180.903 35.0634Z" fill="#AB9F8A"/>
<path d="M206 103H170C168.9 103 168 102.1 168 101V77C168 75.9 168.9 75 170 75H206C207.1 75 208 75.9 208 77V101C208 102.1 207.1 103 206 103Z" fill="#4587E5"/>
<path d="M208 80H168V85.1H208V80Z" fill="#455360"/>
<path d="M182 98H174C173.5 98 173 97.5 173 97V92C173 91.5 173.5 91 174 91H180.6C180.9 91 181.1 91.1 181.3 91.3L182.7 92.7C182.9 92.9 183 93.1 183 93.4V97C183 97.5 182.5 98 182 98Z" fill="#F9D45F"/>
<path d="M204 89.3H187.9V91H204V89.3Z" fill="#ADCBEA"/>
<path d="M196.6 92.3H187.9V94H196.6V92.3Z" fill="#ADCBEA"/>
<path d="M176 92V93H173V94H176V95H173V96H176V97H177V92H176Z" fill="#EFAF3F"/>
<path d="M180 97V96H183V95H180V94H183V93H180V92H179V97H180Z" fill="#EFAF3F"/>
<path d="M145.481 85.6252V86.3722C145.481 90.5548 138.658 93.9451 130.241 93.9451C125.596 93.9451 121.438 92.911 118.643 91.2818C119.585 95.0499 125.991 98.1688 133.758 98.1688C142.174 98.1688 148.998 94.5075 148.998 90.3249C148.998 88.4858 147.675 86.8651 145.481 85.6252Z" fill="#FCC62D"/>
<path d="M133.758 98.1688C125.342 98.1688 118.519 94.5075 118.519 90.3249V95.4222C118.519 99.6048 125.342 102.996 133.758 102.996C142.174 102.996 148.998 99.6048 148.998 95.4222V90.3249C148.998 94.5075 142.174 98.1688 133.758 98.1688Z" fill="#E4AF18"/>
<path d="M120.277 98.9827C120.623 99.3079 121.015 99.6193 121.449 99.9149V94.9124C121.015 94.6046 120.623 94.2818 120.277 93.9451V98.9827Z" fill="#CE9912"/>
<path d="M146.067 94.9124V99.9149C146.501 99.6199 146.893 99.3079 147.239 98.9827V93.9451C146.894 94.2818 146.502 94.6046 146.067 94.9124Z" fill="#CE9912"/>
<path d="M122.621 100.618C122.992 100.816 123.383 101.002 123.794 101.179V96.2356C123.383 96.0497 122.992 95.8536 122.621 95.6473V100.618Z" fill="#CE9912"/>
<path d="M143.722 101.178C144.133 101.002 144.524 100.815 144.895 100.618V95.6467C144.524 95.853 144.133 96.0497 143.722 96.235V101.178Z" fill="#CE9912"/>
<path d="M124.966 101.635C125.345 101.769 125.736 101.893 126.138 102.009V97.1129C125.736 96.9898 125.345 96.8576 124.966 96.7171V101.635Z" fill="#CE9912"/>
<path d="M141.378 102.009C141.781 101.893 142.172 101.769 142.55 101.635V96.7171C142.172 96.8576 141.781 96.9898 141.378 97.1129V102.009Z" fill="#CE9912"/>
<path d="M127.897 102.443C128.279 102.523 128.671 102.594 129.069 102.657V97.8037C128.671 97.7355 128.279 97.6595 127.897 97.575V102.443Z" fill="#CE9912"/>
<path d="M138.447 102.657C138.845 102.593 139.237 102.522 139.619 102.443V97.5744C139.237 97.6589 138.845 97.7349 138.447 97.8037V102.657Z" fill="#CE9912"/>
<path d="M131.414 102.935C131.799 102.964 132.191 102.985 132.586 102.999V98.1706C132.191 98.1549 131.799 98.1332 131.414 98.1012V102.935Z" fill="#CE9912"/>
<path d="M134.93 103C135.325 102.985 135.717 102.965 136.103 102.935V98.1012C135.717 98.1332 135.325 98.1549 134.93 98.1712V103Z" fill="#CE9912"/>
<path d="M130.241 89.1139C121.825 89.1139 115.002 85.4526 115.002 81.27V86.3673C115.002 90.5499 121.825 93.9409 130.241 93.9409C138.658 93.9409 145.481 90.5499 145.481 86.3673V81.27C145.481 85.4526 138.658 89.1139 130.241 89.1139Z" fill="#E4AF18"/>
<path d="M116.76 89.9279C117.106 90.2531 117.498 90.5644 117.932 90.8601V85.8575C117.498 85.5498 117.106 85.227 116.76 84.8909V89.9279Z" fill="#CE9912"/>
<path d="M142.55 85.8575V90.8601C142.984 90.565 143.377 90.2531 143.722 89.9279V84.8903C143.377 85.227 142.985 85.5498 142.55 85.8575Z" fill="#CE9912"/>
<path d="M119.105 91.5636C119.475 91.7609 119.867 91.9474 120.277 92.1242V87.1807C119.867 86.9949 119.475 86.7988 119.105 86.5924V91.5636Z" fill="#CE9912"/>
<path d="M140.206 92.1236C140.616 91.9474 141.007 91.7609 141.378 91.563V86.5918C141.007 86.7982 140.616 86.9949 140.206 87.1801V92.1236Z" fill="#CE9912"/>
<path d="M121.449 92.5803C121.828 92.7137 122.219 92.838 122.621 92.9538V88.058C122.219 87.9349 121.828 87.8028 121.449 87.6622V92.5803Z" fill="#CE9912"/>
<path d="M137.861 92.9538C138.264 92.838 138.655 92.7137 139.033 92.5803V87.6622C138.655 87.8028 138.264 87.9349 137.861 88.058V92.9538Z" fill="#CE9912"/>
<path d="M124.38 93.3882C124.763 93.4679 125.154 93.5391 125.552 93.6024V88.7489C125.154 88.6807 124.763 88.6047 124.38 88.5202V93.3882Z" fill="#CE9912"/>
<path d="M134.93 93.603C135.328 93.5391 135.72 93.4679 136.103 93.3888V88.5202C135.72 88.6047 135.328 88.6807 134.93 88.7495V93.603Z" fill="#CE9912"/>
<path d="M127.897 93.8806C128.282 93.9101 128.674 93.9307 129.069 93.9451V89.1163C128.674 89.1006 128.282 89.0789 127.897 89.0469V93.8806Z" fill="#CE9912"/>
<path d="M131.414 93.9451C131.809 93.9301 132.2 93.9102 132.586 93.8806V89.0463C132.2 89.0783 131.809 89.1 131.414 89.1163V93.9451Z" fill="#CE9912"/>
<path d="M145.08 88.0936C143.511 91.446 137.466 93.9451 130.241 93.9451C127.543 93.9451 125.009 93.5952 122.811 92.984C124.937 94.4701 128.722 95.7348 133.758 95.7348C141.778 95.7348 146.653 92.5302 146.653 90.3249C146.653 89.5888 146.103 88.808 145.08 88.0936Z" fill="#FFD949"/>
<path d="M133.172 87.9114C124.756 87.9114 117.932 84.5204 117.932 80.3378V76.9275C116.091 78.1156 115.002 79.6053 115.002 81.2743C115.002 85.4569 121.825 89.1181 130.241 89.1181C134.294 89.1181 137.974 88.268 140.703 86.9206C138.481 87.55 135.912 87.9114 133.172 87.9114Z" fill="#FFD949"/>
<path d="M133.172 83.0802C124.756 83.0802 117.932 79.4189 117.932 75.2363V80.3336C117.932 84.5162 124.756 87.9072 133.172 87.9072C141.588 87.9072 148.411 84.5162 148.411 80.3336V75.2363C148.411 79.4189 141.588 83.0802 133.172 83.0802Z" fill="#E4AF18"/>
<path d="M119.691 83.8941C120.037 84.2193 120.429 84.5307 120.863 84.8263V79.8237C120.429 79.516 120.037 79.1932 119.691 78.8571V83.8941Z" fill="#CE9912"/>
<path d="M145.481 79.8237V84.8263C145.915 84.5313 146.307 84.2193 146.653 83.8941V78.8565C146.308 79.1932 145.916 79.516 145.481 79.8237Z" fill="#CE9912"/>
<path d="M122.035 85.5299C122.406 85.7272 122.797 85.9136 123.208 86.0904V81.1469C122.797 80.9611 122.406 80.765 122.035 80.5587V85.5299Z" fill="#CE9912"/>
<path d="M143.136 86.0898C143.547 85.9136 143.938 85.7272 144.309 85.5293V80.5581C143.938 80.7644 143.547 80.9611 143.136 81.1464V86.0898Z" fill="#CE9912"/>
<path d="M124.38 86.5466C124.759 86.6799 125.149 86.8042 125.552 86.9201V82.0243C125.149 81.9012 124.759 81.769 124.38 81.6284V86.5466Z" fill="#CE9912"/>
<path d="M140.792 86.9201C141.194 86.8042 141.585 86.6799 141.964 86.5466V81.6284C141.585 81.769 141.194 81.9012 140.792 82.0243V86.9201Z" fill="#CE9912"/>
<path d="M127.311 87.3545C127.693 87.4341 128.085 87.5053 128.483 87.5687V82.7151C128.085 82.6469 127.693 82.5709 127.311 82.4865V87.3545Z" fill="#CE9912"/>
<path d="M137.861 87.5693C138.259 87.5053 138.65 87.4341 139.033 87.3551V82.4865C138.65 82.5709 138.259 82.6469 137.861 82.7157V87.5693Z" fill="#CE9912"/>
<path d="M130.827 87.8468C131.213 87.8764 131.605 87.8969 132 87.9114V83.0826C131.605 83.0669 131.213 83.0452 130.827 83.0132V87.8468Z" fill="#CE9912"/>
<path d="M134.344 87.9114C134.739 87.8963 135.131 87.8764 135.517 87.8468V83.0126C135.131 83.0446 134.739 83.0663 134.344 83.0826V87.9114Z" fill="#CE9912"/>
<path d="M148.411 75.2405C148.411 79.4231 141.588 83.0844 133.172 83.0844C124.756 83.0844 117.932 79.4231 117.932 75.2405C117.932 71.0579 124.756 68 133.172 68C141.588 68 148.411 71.0579 148.411 75.2405Z" fill="#FCC62D"/>
<path d="M133.172 80.6504C125.152 80.6504 120.277 77.4464 120.277 75.2405C120.277 73.0352 125.152 69.8101 133.172 69.8101C141.191 69.8101 146.067 73.0352 146.067 75.2405C146.067 77.4464 141.191 80.6504 133.172 80.6504Z" fill="#FFD949"/>
<path d="M137.147 76.0605C137.627 75.9555 137.909 75.6502 137.805 75.302L137.694 74.9304C137.613 74.657 137.295 74.429 136.907 74.3155C136.378 73.1528 135.03 72.7317 133.028 72.7317C132.933 72.7317 132.84 72.7341 132.749 72.7377C132.065 72.7667 131.384 72.6991 130.852 72.4988C130.635 72.4173 130.459 72.3322 130.342 72.2435C130.289 72.2037 130.162 72.2291 130.162 72.2797C130.162 72.3678 130.168 72.4722 130.187 72.5881C130.259 73.0388 130.173 72.9712 129.74 73.4207C129.489 73.6826 129.289 73.9843 129.145 74.3173C128.758 74.4314 128.443 74.6589 128.362 74.931L128.25 75.3027C128.146 75.6508 128.428 75.9561 128.909 76.0611C129.046 76.9517 129.634 77.7337 130.916 78.1645L130.846 78.7902C130.827 78.9573 130.687 79.1118 130.483 79.1878L127.897 80.1484C129.407 80.4742 131.128 80.6709 133.028 80.6709C134.901 80.6709 136.6 80.4796 138.095 80.1628L135.566 79.1896C135.366 79.1124 135.229 78.9591 135.211 78.795L135.14 78.1645C136.422 77.7337 137.009 76.9511 137.147 76.0605Z" fill="#F0C41B"/>
</svg>
