<svg width="333" height="125" viewBox="0 0 333 125" fill="none" xmlns="http://www.w3.org/2000/svg">
<rect width="333" height="125" rx="10" fill="#E4E4E6"/>
<path d="M191.253 80.0219L173.87 62.7781L176.234 60.4141L172.341 56.5203L160.52 68.3406L164.414 72.2344L166.083 70.5656L170.672 75.0156H174.844V79.1875H179.016V83.3594H183.187V87.5312L184.578 88.6437C184.717 88.7828 184.995 88.9219 185.134 88.9219L190.697 88.3656C191.114 88.3656 191.531 87.9484 191.531 87.5312V80.5781C191.531 80.3 191.392 80.1609 191.253 80.0219Z" fill="#74777B"/>
<path d="M188.611 83.2203L172.202 66.6719C171.923 66.3937 171.923 65.9766 172.202 65.6984C172.48 65.4203 172.897 65.4203 173.175 65.6984L189.445 82.2469C189.723 82.525 189.723 82.9422 189.445 83.2203C189.306 83.3594 188.889 83.3594 188.611 83.2203Z" fill="#CBCCCD"/>
<path d="M156.766 36.0781C147.588 36.0781 140.078 43.5875 140.078 52.7656C140.078 61.9437 147.588 69.4531 156.766 69.4531C165.944 69.4531 173.453 61.9437 173.453 52.7656C173.453 43.5875 165.944 36.0781 156.766 36.0781ZM154.263 55.1297C151.62 55.1297 149.395 52.9047 149.395 50.2625C149.395 47.6203 151.62 45.3953 154.263 45.3953C156.905 45.3953 159.13 47.6203 159.13 50.2625C159.13 52.9047 156.905 55.1297 154.263 55.1297Z" fill="#9AD852"/>
</svg>
