<svg width="333" height="125" viewBox="0 0 333 125" fill="none" xmlns="http://www.w3.org/2000/svg">
<rect width="333" height="125" rx="10" fill="#E4E4E6"/>
<path d="M161 32H159V40.058H161V32Z" fill="#D11C7B"/>
<path d="M175 32H173V40.058H175V32Z" fill="#D11C7B"/>
<path d="M172 52H162V57H172V52Z" fill="#D11C7B"/>
<path d="M176 39V47.39C176 48.1268 175.855 48.8564 175.574 49.5372C175.292 50.2179 174.878 50.8365 174.357 51.3575C173.836 51.8784 173.218 52.2917 172.537 52.5735C171.856 52.8553 171.127 53.0003 170.39 53H163.61C162.873 53.0013 162.143 52.8571 161.462 52.5756C160.78 52.2942 160.161 51.881 159.64 51.3598C159.119 50.8386 158.706 50.2196 158.424 49.5384C158.143 48.8572 157.999 48.1271 158 47.39V39C158.679 39.1691 159.347 39.3795 160 39.63C161.445 40.1846 162.794 40.9605 164 41.93C165.122 42.8265 166.13 43.8576 167 45C168.155 43.5882 169.493 42.3371 170.98 41.28C170.99 41.27 170.99 41.26 171 41.26C172.218 40.3865 173.569 39.7146 175 39.27C175.33 39.16 175.66 39.08 176 39Z" fill="#ED4F9B"/>
<path d="M188 87C174.521 92.4 159.479 92.4 146 87C146 86.99 146.01 86.98 146.01 86.97C150.221 76.4222 155.584 66.3714 162 57H172C178.405 66.3907 183.769 76.4498 188 87V87Z" fill="#ED4F9B"/>
<path d="M172 59.5C172 74.69 160.81 87 147 87C146.667 87 146.337 86.99 146.01 86.97C150.221 76.4222 155.584 66.3714 162 57H171.89C171.97 57.82 172 58.66 172 59.5Z" fill="#F467B1"/>
<path d="M171 42C171.001 44.5505 170.117 47.0223 168.497 48.9924C166.877 50.9625 164.623 52.3084 162.12 52.8C160.935 52.4742 159.891 51.7683 159.146 50.7909C158.402 49.8134 157.999 48.6186 158 47.39V39C158.679 39.1691 159.347 39.3795 160 39.63C161.445 40.1846 162.794 40.9605 164 41.93C165.122 42.8265 166.13 43.8576 167 45C168.155 43.5882 169.493 42.3371 170.98 41.28C170.99 41.52 171 41.76 171 42Z" fill="#F467B1"/>
</svg>
