<svg width="333" height="125" viewBox="0 0 333 125" fill="none" xmlns="http://www.w3.org/2000/svg">
<rect width="333" height="125" rx="10" fill="#E4E4E6"/>
<path d="M140.818 57.7083C140.849 58.1238 140.894 58.5122 140.894 58.9375C140.894 63.5174 139.059 67.554 136.208 70H146.042H150.958H160.792C157.94 67.554 156.106 63.5174 156.106 58.9375C156.106 58.5122 156.15 58.1238 156.182 57.7083H150.958H146.042H140.818Z" fill="#95A5A6"/>
<path d="M140.818 57.7083C140.849 57.9542 140.894 58.4458 140.894 58.9375C140.894 60.1667 140.781 61.3958 140.51 62.625H156.49C156.219 61.3958 156.106 60.1667 156.106 58.9375C156.106 58.4458 156.15 57.9542 156.182 57.7083H150.958H146.042H140.818Z" fill="#7F8C8D"/>
<path d="M121.458 18.375C120.101 18.375 119 19.3583 119 20.8333V23.2917V28.2083V33.125V38.0417V40.5V42.9583V45.4167V50.3333V55.25V57.7083C119 58.9375 120.101 60.1667 121.458 60.1667H123.917H155.875H170.625H173.083H175.542C176.899 60.1667 178 58.9375 178 57.7083V55.25V38.0417V35.5833V33.125V28.2083V23.2917V20.8333C178 19.3583 176.899 18.375 175.542 18.375H173.083H160.792H158.333H136.208H126.375H123.917H121.458Z" fill="#BDC3C7"/>
<path d="M175.542 20.8333H121.458V55.25H175.542V20.8333Z" fill="#34495E"/>
<path d="M175.542 23.2917L123.917 55.25H172.056H175.542V51.3167V23.2917Z" fill="#2C3E50"/>
<path d="M178 106V74C178 71.8 179.8 70 182 70H198C200.2 70 202 71.8 202 74V106C202 108.2 200.2 110 198 110H182C179.8 110 178 108.2 178 106Z" fill="#37474F"/>
<path d="M198 73H182C181.4 73 181 73.4 181 74V103C181 103.6 181.4 104 182 104H198C198.6 104 199 103.6 199 103V74C199 73.4 198.6 73 198 73Z" fill="#BBDEFB"/>
<path d="M193 106H187V108H193V106Z" fill="#78909C"/>
</svg>
