<svg width="333" height="125" viewBox="0 0 333 125" fill="none" xmlns="http://www.w3.org/2000/svg">
<rect width="333" height="125" rx="10" fill="#E4E4E6"/>
<path d="M143.559 46.8333C141.983 46.8333 140.68 48.1681 140.68 49.7815V79.7652C140.68 81.3785 141.983 82.7133 143.559 82.7133H189.772C191.347 82.7133 192.651 81.3785 192.651 79.7652V49.7815C192.651 48.1681 191.347 46.8333 189.772 46.8333H143.559Z" fill="white"/>
<path d="M160.641 42.2911C159.065 42.2911 157.762 43.6259 157.762 45.2392V49.5632C157.762 51.1765 159.065 52.5113 160.641 52.5113H172.69C174.265 52.5113 175.59 51.1765 175.59 49.5632V45.2392C175.59 43.6259 174.265 42.2911 172.69 42.2911H160.641Z" fill="#4C6CEB"/>
<path d="M169.853 58.0583C169.489 58.1024 169.155 58.2866 168.919 58.5736C168.682 58.8606 168.561 59.2291 168.58 59.6041C168.599 59.979 168.757 60.3325 169.021 60.5929C169.285 60.8534 169.636 61.0012 170.003 61.0065H184.909C185.108 61.0236 185.309 60.9984 185.498 60.9321C185.687 60.8658 185.861 60.7598 186.008 60.6212C186.155 60.4827 186.273 60.3146 186.353 60.1271C186.433 59.9397 186.475 59.7371 186.475 59.5324C186.475 59.3277 186.433 59.1251 186.353 58.9377C186.273 58.7502 186.155 58.5821 186.008 58.4436C185.861 58.305 185.687 58.199 185.498 58.1327C185.309 58.0664 185.108 58.0412 184.909 58.0583H170.003C169.953 58.0557 169.903 58.0557 169.853 58.0583Z" fill="#444444"/>
<path d="M170.003 63.605C169.618 63.605 169.249 63.7616 168.977 64.0401C168.705 64.3186 168.552 64.6962 168.552 65.09C168.552 65.4839 168.705 65.8615 168.977 66.14C169.249 66.4185 169.618 66.575 170.003 66.575H184.909C185.294 66.575 185.663 66.4185 185.935 66.14C186.207 65.8615 186.359 65.4839 186.359 65.09C186.359 64.6962 186.207 64.3186 185.935 64.0401C185.663 63.7616 185.294 63.605 184.909 63.605H170.003Z" fill="#444444"/>
<path d="M169.853 69.1738C169.489 69.2181 169.156 69.4024 168.919 69.6894C168.683 69.9763 168.562 70.3447 168.581 70.7195C168.6 71.0943 168.758 71.4476 169.022 71.708C169.285 71.9684 169.636 72.1164 170.003 72.1219H184.909C185.109 72.1392 185.309 72.1138 185.498 72.0475C185.688 71.9813 185.861 71.8756 186.009 71.737C186.156 71.5985 186.273 71.4301 186.354 71.2426C186.434 71.0551 186.476 70.8526 186.476 70.6479C186.476 70.4431 186.434 70.2406 186.354 70.0531C186.273 69.8656 186.156 69.6972 186.009 69.5587C185.861 69.4201 185.688 69.3144 185.498 69.2482C185.309 69.1819 185.109 69.1565 184.909 69.1738H170.003C169.953 69.1711 169.903 69.1711 169.853 69.1738Z" fill="#444444"/>
<path d="M150.255 54.6076C148.68 54.6076 147.355 55.9642 147.355 57.5776V71.9689C147.355 73.5822 148.68 74.9389 150.255 74.9389H162.539C164.114 74.9389 165.439 73.5822 165.439 71.9689V57.5776C165.439 55.9642 164.114 54.6076 162.539 54.6076H150.255Z" fill="#E45353"/>
<path d="M156.397 59.1282C153.884 59.1273 151.833 61.2481 151.833 63.8234C151.833 64.4607 151.737 65.1971 151.918 66.0727C151.979 66.3656 152.416 66.5355 152.601 66.8374C151.869 67.4568 150.925 67.8806 150.575 68.7373C149.976 70.2006 149.786 71.8407 149.786 73.4106C149.794 74.2235 150.442 74.8769 151.236 74.8738H161.557C162.343 74.8651 162.978 74.2152 162.986 73.4106C162.986 71.8169 162.771 70.1538 162.133 68.6936C161.767 67.8561 160.826 67.4656 160.107 66.8592C160.293 66.5763 160.713 66.4244 160.79 66.1392C161.024 65.2638 160.96 64.5084 160.96 63.8244C160.96 61.25 158.909 59.1295 156.397 59.1292L156.397 59.1282Z" fill="#EDB666"/>
</svg>
