<svg width="333" height="125" viewBox="0 0 333 125" fill="none" xmlns="http://www.w3.org/2000/svg">
<rect width="333" height="125" rx="10" fill="#E4E4E6"/>
<path d="M146.75 50.75V55.25V57.5V64.25V66.5V77.75V80C146.75 82.475 148.765 84.5 151.25 84.5H182.75C185.236 84.5 187.25 82.475 187.25 80V77.75V66.5V57.5V50.75H146.75Z" fill="#16A085"/>
<path d="M146.75 48.5V53V55.25V62V64.25V75.5V77.75C146.75 80.225 148.765 82.25 151.25 82.25H182.75C185.236 82.25 187.25 80.225 187.25 77.75V75.5V64.25V55.25V48.5H146.75Z" fill="#ECF0F1"/>
<path d="M146.75 46.25V50.75V53V59.75V62V73.25V75.5C146.75 77.975 148.765 80 151.25 80H182.75C185.236 80 187.25 77.975 187.25 75.5V73.25V62V53V46.25H146.75Z" fill="#BDC3C7"/>
<path d="M146.75 44V48.5V50.75V57.5V59.75V71V73.25C146.75 75.725 148.765 77.75 151.25 77.75H182.75C185.236 77.75 187.25 75.725 187.25 73.25V71V59.75V50.75V44H146.75Z" fill="#ECF0F1"/>
<path d="M151.25 35C148.765 35 146.75 37.025 146.75 39.5V41.75V50.75V55.25V57.5V64.25V66.5V77.75V80C146.75 82.475 148.765 84.5 151.25 84.5H155.75V82.25H152.375C150.511 82.25 149 80.675 149 78.875C149 76.85 150.511 75.5 152.375 75.5H180.5H182.75C185.236 75.5 187.25 73.475 187.25 71V68.75V57.5V48.5V41.75V39.5C187.25 37.025 185.236 35 182.75 35H173.75H151.25Z" fill="#16A085"/>
<path d="M158 35V75.5H160.25H180.5H182.75C185.236 75.5 187.25 73.475 187.25 71V68.75V57.5V48.5V41.75V39.5C187.25 37.025 185.236 35 182.75 35H173.75H160.25H158Z" fill="#1ABC9C"/>
<path d="M155.75 80V84.5V89L161.375 84.5L167 89V84.5V80H155.75Z" fill="#E74C3C"/>
<path d="M167 77.75H155.75V80H167V77.75Z" fill="#C0392B"/>
</svg>
