<svg width="125" height="125" viewBox="0 0 125 125" fill="none" xmlns="http://www.w3.org/2000/svg">
<rect width="125" height="125" rx="10" fill="#E5E5E5"/>
<path d="M43.319 26C43.0935 25.9999 42.8747 25.9235 42.698 25.7834C42.5214 25.6433 42.3974 25.4475 42.346 25.228C42.0608 24.0245 41.3778 22.9524 40.4076 22.1852C39.4375 21.418 38.2369 21.0006 37 21.0006C35.7631 21.0006 34.5625 21.418 33.5923 22.1852C32.6221 22.9524 31.9391 24.0245 31.6539 25.228C31.6259 25.3578 31.5724 25.4808 31.4964 25.5897C31.4204 25.6986 31.3234 25.7913 31.2112 25.8623C31.099 25.9333 30.9737 25.9812 30.8428 26.0033C30.7118 26.0254 30.5777 26.0212 30.4484 25.9909C30.3191 25.9606 30.1971 25.9049 30.0896 25.8269C29.9821 25.749 29.8911 25.6504 29.8221 25.5369C29.7531 25.4235 29.7073 25.2974 29.6875 25.166C29.6677 25.0347 29.6744 24.9008 29.707 24.772C30.0945 23.1288 31.0254 21.6646 32.3491 20.6167C33.6728 19.5688 35.3117 18.9987 37 18.9987C38.6883 18.9987 40.3271 19.5688 41.6508 20.6167C42.9745 21.6646 43.9054 23.1288 44.2929 24.772C44.353 25.03 44.3081 25.3013 44.1681 25.5263C44.0283 25.7513 43.8049 25.9116 43.547 25.972C43.4723 25.9897 43.3958 25.999 43.319 26Z" fill="#C6512B"/>
<path d="M54 60H20C18.9391 60 17.9217 59.5786 17.1716 58.8284C16.4214 58.0783 16 57.0609 16 56V52C16 51.4696 16.2107 50.9609 16.5858 50.5858C16.9609 50.2107 17.4696 50 18 50H56C56.5304 50 57.0391 50.2107 57.4142 50.5858C57.7893 50.9609 58 51.4696 58 52V56C58 57.0609 57.5786 58.0783 56.8284 58.8284C56.0783 59.5786 55.0609 60 54 60Z" fill="#C6512B"/>
<path d="M54 57H20C18.9391 57 17.9217 56.5786 17.1716 55.8284C16.4214 55.0783 16 54.0609 16 53V56C16 57.0609 16.4214 58.0783 17.1716 58.8284C17.9217 59.5786 18.9391 60 20 60H54C55.0609 60 56.0783 59.5786 56.8284 58.8284C57.5786 58.0783 58 57.0609 58 56V53C58 54.0609 57.5786 55.0783 56.8284 55.8284C56.0783 56.5786 55.0609 57 54 57Z" fill="#AD4023"/>
<path d="M54 33.589V57C54 58.5913 53.3679 60.1174 52.2426 61.2426C51.1174 62.3678 49.5913 63 48 63H26C24.4087 63 22.8826 62.3678 21.7574 61.2426C20.6321 60.1174 20 58.5913 20 57V33.589H54Z" fill="#E67244"/>
<path d="M48 59H26C24.4087 59 22.8826 58.3679 21.7574 57.2426C20.6321 56.1174 20 54.5913 20 53V57C20 58.5913 20.6321 60.1174 21.7574 61.2426C22.8826 62.3679 24.4087 63 26 63H48C49.5913 63 51.1174 62.3679 52.2426 61.2426C53.3679 60.1174 54 58.5913 54 57V53C54 54.5913 53.3679 56.1174 52.2426 57.2426C51.1174 58.3679 49.5913 59 48 59Z" fill="#C6512B"/>
<path d="M26.444 41H22C20.9391 41 19.9217 40.5786 19.1716 39.8284C18.4214 39.0783 18 38.0609 18 37V30C18 28.4087 18.6321 26.8826 19.7574 25.7574C20.8826 24.6321 22.4087 24 24 24H50C51.5913 24 53.1174 24.6321 54.2426 25.7574C55.3679 26.8826 56 28.4087 56 30V37C56 38.0609 55.5786 39.0783 54.8284 39.8284C54.0783 40.5786 53.0609 41 52 41H26.444Z" fill="#E67244"/>
<path d="M52 37H22C20.9391 37 19.9217 36.5786 19.1716 35.8284C18.4214 35.0783 18 34.0609 18 33V37C18 38.0609 18.4214 39.0783 19.1716 39.8284C19.9217 40.5786 20.9391 41 22 41H52C53.0609 41 54.0783 40.5786 54.8284 39.8284C55.5786 39.0783 56 38.0609 56 37V33C56 34.0609 55.5786 35.0783 54.8284 35.8284C54.0783 36.5786 53.0609 37 52 37Z" fill="#C6512B"/>
<path d="M43 57H31C29.9391 57 28.9217 56.5786 28.1716 55.8284C27.4214 55.0783 27 54.0609 27 53V51C27 50.4696 27.2107 49.9609 27.5858 49.5858C27.9609 49.2107 28.4696 49 29 49H45C45.5304 49 46.0391 49.2107 46.4142 49.5858C46.7893 49.9609 47 50.4696 47 51V53C47 54.0609 46.5786 55.0783 45.8284 55.8284C45.0783 56.5786 44.0609 57 43 57Z" fill="#C6512B"/>
<path d="M43 54H31C30.0365 53.9984 29.1061 53.648 28.3809 53.0136C27.6557 52.3792 27.1847 51.5037 27.055 50.549C27.0199 50.6968 27.0014 50.8481 27 51V53C27 54.0609 27.4214 55.0783 28.1716 55.8284C28.9217 56.5786 29.9391 57 31 57H43C44.0609 57 45.0783 56.5786 45.8284 55.8284C46.5786 55.0783 47 54.0609 47 53V51C46.9986 50.8481 46.9801 50.6968 46.945 50.549C46.8153 51.5037 46.3443 52.3792 45.6191 53.0136C44.8939 53.648 43.9635 53.9984 43 54Z" fill="#AD4023"/>
<path d="M31 40C31 38.8954 30.1046 38 29 38C27.8954 38 27 38.8954 27 40V42C27 43.1046 27.8954 44 29 44C30.1046 44 31 43.1046 31 42V40Z" fill="#EAEFF0"/>
<path d="M47 40C47 38.8954 46.1046 38 45 38C43.8954 38 43 38.8954 43 40V42C43 43.1046 43.8954 44 45 44C46.1046 44 47 43.1046 47 42V40Z" fill="#EAEFF0"/>
<path d="M100.5 80.0625V73.875C100.5 70.3687 97.8188 67.6875 94.3125 67.6875H73.6875C70.1812 67.6875 67.5 70.3687 67.5 73.875V80.0625H100.5Z" fill="#D11C7B"/>
<path d="M67.5 84.1875V100.688C67.5 104.194 70.1812 106.875 73.6875 106.875H94.3125C97.8188 106.875 100.5 104.194 100.5 100.688V84.1875H67.5Z" fill="#D11C7B"/>
<path d="M73.6875 111C72.45 111 71.625 110.175 71.625 108.938V104.812C71.625 103.575 72.45 102.75 73.6875 102.75C74.925 102.75 75.75 103.575 75.75 104.812V108.938C75.75 110.175 74.925 111 73.6875 111Z" fill="#969696"/>
<path d="M94.3125 111C93.075 111 92.25 110.175 92.25 108.938V104.812C92.25 103.575 93.075 102.75 94.3125 102.75C95.55 102.75 96.375 103.575 96.375 104.812V108.938C96.375 110.175 95.55 111 94.3125 111Z" fill="#BDC3C7"/>
<path d="M90.1875 71.8125H77.8125C76.575 71.8125 75.75 70.9875 75.75 69.75V47.0625C75.75 45.825 76.575 45 77.8125 45H90.1875C91.425 45 92.25 45.825 92.25 47.0625V69.75C92.25 70.9875 91.425 71.8125 90.1875 71.8125ZM79.875 67.6875H88.125V49.125H79.875V67.6875Z" fill="#BDC3C7"/>
<path d="M92.25 49.125H75.75C74.5125 49.125 73.6875 48.3 73.6875 47.0625C73.6875 45.825 74.5125 45 75.75 45H92.25C93.4875 45 94.3125 45.825 94.3125 47.0625C94.3125 48.3 93.4875 49.125 92.25 49.125Z" fill="#969696"/>
</svg>
