<svg width="125" height="125" viewBox="0 0 125 125" fill="none" xmlns="http://www.w3.org/2000/svg">
<rect width="125" height="125" rx="10" fill="#E5E5E5"/>
<path d="M57 33H55V41.058H57V33Z" fill="#D11C7B"/>
<path d="M71 33H69V41.058H71V33Z" fill="#D11C7B"/>
<path d="M68 53H58V58H68V53Z" fill="#D11C7B"/>
<path d="M72 40V48.39C72.0003 49.1268 71.8553 49.8564 71.5735 50.5372C71.2917 51.2179 70.8785 51.8365 70.3575 52.3575C69.8365 52.8784 69.2179 53.2917 68.5372 53.5735C67.8564 53.8553 67.1268 54.0003 66.39 54H59.61C58.8729 54.0013 58.1428 53.8571 57.4616 53.5756C56.7804 53.2942 56.1614 52.881 55.6402 52.3598C55.119 51.8386 54.7058 51.2196 54.4244 50.5384C54.1429 49.8572 53.9987 49.1271 54 48.39V40C54.6789 40.1691 55.3468 40.3795 56 40.63C57.4446 41.1846 58.794 41.9605 60 42.93C61.1221 43.8265 62.1296 44.8576 63 46C64.1549 44.5882 65.4935 43.3371 66.98 42.28C66.99 42.27 66.99 42.26 67 42.26C68.218 41.3865 69.5686 40.7146 71 40.27C71.33 40.16 71.66 40.08 72 40Z" fill="#ED4F9B"/>
<path d="M84 88C70.5207 93.4 55.4793 93.4 42 88C42 87.99 42.01 87.98 42.01 87.97C46.2214 77.4222 51.5838 67.3714 58 58H68C74.4046 67.3907 79.7694 77.4498 84 88Z" fill="#ED4F9B"/>
<path d="M68 60.5C68 75.69 56.81 88 43 88C42.6667 88 42.3367 87.99 42.01 87.97C46.2214 77.4222 51.5838 67.3714 58 58H67.89C67.97 58.82 68 59.66 68 60.5Z" fill="#F467B1"/>
<path d="M67 43C67.0014 45.5505 66.1165 48.0223 64.4967 49.9924C62.8768 51.9625 60.6227 53.3084 58.12 53.8C56.9354 53.4742 55.8906 52.7683 55.1463 51.7909C54.4019 50.8134 53.9992 49.6186 54 48.39V40C54.6789 40.1691 55.3468 40.3795 56 40.63C57.4446 41.1846 58.794 41.9605 60 42.93C61.1221 43.8265 62.1296 44.8576 63 46C64.1549 44.5882 65.4935 43.3371 66.98 42.28C66.99 42.52 67 42.76 67 43Z" fill="#F467B1"/>
</svg>
